<svg width="500" height="500" viewBox="0 0 500 500" fill="none" xmlns="http://www.w3.org/2000/svg">
<g clip-path="url(#clip0_756_2)">
<rect width="500" height="500" fill="white"/>
<path d="M434 94.5C432.333 95.5 430.667 97 429 99C427.333 101 426.167 103.167 425.5 105.5C424.833 107.833 424.667 110 425 112C425.667 114 427.333 115.667 430 117C430 121 428.833 123.5 426.5 124.5C427.167 127.833 427 131.333 426 135C425.333 138.667 426 141.667 428 144C426.667 145 426.167 146.833 426.5 149.5C426.833 151.833 426.667 153.5 426 154.5C428 159.167 428 164.167 426 169.5C424.333 174.833 423.833 180.667 424.5 187C424.5 195.333 424 201.833 423 206.5C422 210.833 421.833 214.833 422.5 218.5C421.833 219.5 421 220.667 420 222C419.333 223 418 223.5 416 223.5C415.333 222.833 414.833 221.667 414.5 220C414.5 218.333 414.833 217.167 415.5 216.5C413.833 215.833 412.5 214.667 411.5 213C410.833 211 410.167 209 409.5 207C409.167 205 408.667 203 408 201C407.667 199 407 197.333 406 196C405.333 191 404.333 185.667 403 180C401.667 174 400 168.667 398 164C397.333 162.667 396.833 161 396.5 159C396.167 156.667 395.833 154.333 395.5 152C395.5 149.333 395.167 146.833 394.5 144.5C394.167 142.167 393.167 140.167 391.5 138.5C389.833 138.833 388.667 138.667 388 138C387.667 137.333 386.833 137.333 385.5 138C385.167 137 384.833 136.167 384.5 135.5C384.167 134.5 384 133.5 384 132.5C384.667 130.167 385.167 128.333 385.5 127C386.167 125.667 386.833 124.333 387.5 123C381.5 121.667 378.167 119.833 377.5 117.5C377.167 115.167 376.833 112.167 376.5 108.5C374.167 106.833 372.333 105 371 103C370 101 368.667 99.1667 367 97.5C365.333 98.1667 363.667 98.3333 362 98C360.667 97.6667 359.667 98.3333 359 100C356.333 97.6667 354.833 96.3333 354.5 96C354.5 95.6667 354.167 94.6667 353.5 93C354.167 92.3333 355.167 92 356.5 92C357.833 92 358.833 91.8333 359.5 91.5C358.167 87.8333 355.667 85.3333 352 84C348.333 82.6667 345.5 80.5 343.5 77.5C342.167 75.8333 340.833 74.3333 339.5 73C338.167 71.6667 336.833 70.5 335.5 69.5C334.167 68.1667 332.667 67.1667 331 66.5C329.333 65.8333 327.333 65.8333 325 66.5C324.333 65.5 323.5 64.6667 322.5 64C321.5 63 320.667 62.1667 320 61.5C314.667 62.5 309.667 62.8333 305 62.5C300.333 62.1667 296.333 62.3333 293 63C293 65.6667 293 68 293 70C293 72 292.333 73.8333 291 75.5C292 77.5 292.667 79 293 80C293.667 81 293.167 81.6667 291.5 82C292.5 82.6667 293.167 84 293.5 86C293.833 87.6667 294.333 89 295 90C293.333 91.6667 293 93.8333 294 96.5C295.333 98.8333 296 101.167 296 103.5C298.333 106.833 298.833 109.167 297.5 110.5C296.167 111.833 295.833 114.167 296.5 117.5C297.167 124.833 297.333 130.5 297 134.5C296.667 138.167 296.833 142.167 297.5 146.5C297.167 149.5 297 152.333 297 155C297.333 157.333 296.833 159 295.5 160C296.833 163.333 297 166.667 296 170C295 173 295.333 175.5 297 177.5C296.667 183.167 296.667 188.5 297 193.5C297.333 198.167 297.167 202.5 296.5 206.5C298.167 207.5 299.167 209.167 299.5 211.5C299.833 213.833 300.667 215.667 302 217C299 218.333 297.333 220.833 297 224.5C297 228.167 296.333 230.833 295 232.5C296.667 234.167 297.167 236.333 296.5 239C295.833 241.667 295.167 243.833 294.5 245.5C295.833 246.833 296.167 248.333 295.5 250C294.833 251.667 294.5 253 294.5 254C294.833 255.333 295.333 256.333 296 257C296.667 257.667 297.167 258.333 297.5 259C297.167 260.333 296.667 261.333 296 262C295.333 262.667 294.667 263.5 294 264.5C293.667 267.5 294.167 269.667 295.5 271C296.833 272 297.667 273.833 298 276.5C296.333 281.167 294.5 284.167 292.5 285.5C291.833 288.5 291.667 290.667 292 292C292.667 293 293 295 293 298C294.667 301 294.833 303.167 293.5 304.5C292.5 305.5 292.333 306.833 293 308.5C297.333 309.5 299 310.667 298 312C297.333 313.333 296.333 314.833 295 316.5C293.667 317.833 292.333 319.333 291 321C290 322.333 289.5 323.833 289.5 325.5C289.5 327.5 290.167 329 291.5 330C293.167 330.667 293.167 332.167 291.5 334.5C294.833 332.833 296.667 332.5 297 333.5C297.333 334.167 298 334.667 299 335C296.667 337.667 294.5 340.833 292.5 344.5C290.833 348.167 291.333 351.5 294 354.5C293 356.833 292.833 359.167 293.5 361.5C294.167 363.833 295 365.667 296 367C294.667 371.667 294.167 374.5 294.5 375.5C295.167 376.5 295.333 377.833 295 379.5C293.667 381.5 293.5 383.167 294.5 384.5C295.5 385.5 295 386.333 293 387C294 389.667 294.333 393 294 397C293.667 401 294.333 404.333 296 407C298.667 409.667 301.833 412.333 305.5 415C309.167 417.333 314 417.5 320 415.5C327.333 419.167 334.667 421.167 342 421.5C349.333 421.5 356.833 421.5 364.5 421.5C365.5 422.167 366.333 423 367 424C368 425 368.5 426.5 368.5 428.5C366.833 428.833 365.167 429.833 363.5 431.5C362.5 431.167 361.667 431.833 361 433.5C360.333 435.167 359.667 436.667 359 438C354.667 438.333 350.833 438 347.5 437C344.5 436 341.333 436.333 338 438C336 437 333.333 436 330 435C326.667 434 324 434.333 322 436C316.333 434.667 310.5 434.333 304.5 435C298.5 435.333 292.167 435.833 285.5 436.5C280.833 435.5 276.667 435 273 435C269.333 435 265.5 435.167 261.5 435.5C255.833 434.5 250.167 434.167 244.5 434.5C239.167 434.5 233.833 435.167 228.5 436.5C224.167 435.5 219.833 435 215.5 435C211.5 434.667 206.833 434.333 201.5 434C195.5 433.333 190.5 433 186.5 433C182.5 433 178.5 432.833 174.5 432.5C170.5 432.167 166.5 432 162.5 432C158.5 432 154.667 432.5 151 433.5C147.333 432.5 143.5 432.333 139.5 433C135.5 433.667 131 433.667 126 433C126.667 427.667 128.167 424.667 130.5 424C132.833 423 135.333 422.5 138 422.5C140.667 422.5 143.333 422.667 146 423C148.667 423 151.333 423 154 423C157.667 423 161.167 422.5 164.5 421.5C168.167 420.5 171.5 420.833 174.5 422.5C180.5 421.167 184.833 420.333 187.5 420C190.5 419.667 193 418.833 195 417.5C198.667 415.833 202.167 412.5 205.5 407.5C209.167 402.5 212.5 398.833 215.5 396.5C216.167 394.833 215.833 393.833 214.5 393.5C213.5 393.167 212.833 392.5 212.5 391.5C212.833 389.833 213.167 388.333 213.5 387C214.167 385.667 213.833 384.167 212.5 382.5C212.833 378.833 213.667 376.333 215 375C216.333 373.333 217.5 371.667 218.5 370C218.5 365.667 218.667 361.833 219 358.5C219.667 354.833 218.667 351.833 216 349.5C218 344.833 219 341.5 219 339.5C219.333 337.5 219.833 335.333 220.5 333C216.5 328.667 215.333 325.333 217 323C218.667 320.333 219.5 317.333 219.5 314C219.5 310.333 219.333 306.833 219 303.5C219 299.833 218.667 296.333 218 293C219.333 290.667 219 288.833 217 287.5C214 287.833 211.667 288 210 288C210.667 286 211.833 284.667 213.5 284C215.5 283 217 281.667 218 280C217.667 277.667 217.667 275.5 218 273.5C218.333 271.167 218.5 268.667 218.5 266C217.167 259.667 217.333 254.5 219 250.5C221 246.167 220.833 241.667 218.5 237C214.833 237 212.833 236.5 212.5 235.5C212.167 234.5 212.167 233.167 212.5 231.5C213.833 228.167 215 226.167 216 225.5C217 224.833 217.833 223.833 218.5 222.5C218.167 219.833 217.833 217.333 217.5 215C217.167 212.667 215.667 211.333 213 211C211.333 208 211 205.667 212 204C213.333 202 215 200.333 217 199C217.333 195.333 216.667 192.333 215 190C213.333 187.667 212.5 185 212.5 182C214.5 180.667 215.333 178.333 215 175C215 171.667 214.333 169 213 167C214.333 165.333 214.5 163.333 213.5 161C212.5 158.667 212.5 156.833 213.5 155.5C210.167 154.5 208.333 153.667 208 153C207.667 152 207.5 151 207.5 150C207.833 147 208.833 144.667 210.5 143C212.5 141.333 213.333 138.833 213 135.5C209.333 137.167 207.333 137.667 207 137C207 136 206.5 135.333 205.5 135C207.833 132.333 208.333 131.167 207 131.5C205.667 131.5 205.167 130.833 205.5 129.5C207.5 129.167 208.667 128.667 209 128C209.667 127 209.667 125.833 209 124.5C212.667 119.5 214 116.167 213 114.5C212 112.5 211 110.667 210 109C211.667 106.333 212.667 103.167 213 99.5C213.667 95.8333 212.667 93.1667 210 91.5C211 86.5 211.667 82.1667 212 78.5C212.667 74.5 212.667 70.5 212 66.5C203.333 65.8333 195 65.8333 187 66.5C179 66.8333 171.5 68.3333 164.5 71C164.5 73.3333 163.833 75 162.5 76C161.167 77 160.333 78.6667 160 81C158.333 80.3333 157 80.5 156 81.5C155.333 82.1667 154.667 82.1667 154 81.5C152.667 84.5 150.333 86.5 147 87.5C143.667 88.5 142 90.6667 142 94C140.333 94 139 94.3333 138 95C137.333 95.6667 136.667 96.5 136 97.5C135.333 98.5 134.667 99.5 134 100.5C133.667 101.167 132.833 101.667 131.5 102C131.5 105.667 130.333 109 128 112C125.667 114.667 124.167 118 123.5 122C125.167 123.667 125.5 124.833 124.5 125.5C123.5 126.167 122.667 127 122 128C121.333 131 120.667 132.667 120 133C119.667 133 118.833 133 117.5 133C115.167 137.667 113.333 143 112 149C110.667 155 108.5 160.333 105.5 165C103.167 170 102.167 174.5 102.5 178.5C102.833 182.5 102.167 186.333 100.5 190C97.8333 194 96.5 197.167 96.5 199.5C96.5 201.833 96.1667 204 95.5 206C93.8333 210 93 212.833 93 214.5C93.3333 216.167 92.3333 217.167 90 217.5C89 217.167 88.3333 216.667 88 216C87.6667 215 87 214.167 86 213.5C89 203.833 91.5 193.667 93.5 183C95.8333 172.333 98.8333 162.667 102.5 154C103.167 153 103.833 152.167 104.5 151.5C105.167 150.833 105.5 149.667 105.5 148C102.167 146.333 100.833 145.333 101.5 145C102.167 144.333 102.5 143.5 102.5 142.5C104.833 142.167 106 141.333 106 140C106 138.333 107 137.167 109 136.5C107 133.167 106.333 131.5 107 131.5C107.667 131.5 108.333 131.167 109 130.5C107.333 129.833 106 130.167 105 131.5C104.333 132.5 103.167 133 101.5 133C97.8333 135.667 96.5 137.167 97.5 137.5C98.8333 137.833 99.3333 138.333 99 139C97.3333 140 96 140.167 95 139.5C94 138.833 92.8333 138.5 91.5 138.5C91.8333 141.5 91.1667 143.5 89.5 144.5C88.1667 145.5 86.3333 146.667 84 148C82.3333 152.667 81.8333 157 82.5 161C83.5 165 84 169.167 84 173.5C84 176.5 83.3333 180.167 82 184.5C81 188.5 81.8333 192 84.5 195C83.1667 198.667 82.8333 202.167 83.5 205.5C84.5 208.833 84.8333 212.667 84.5 217L79.5 219.5C77.8333 217.167 77.1667 214.667 77.5 212C78.1667 209.333 77.5 207.167 75.5 205.5C76.5 198.167 76.6667 191.167 76 184.5C75.6667 177.5 75.3333 170.5 75 163.5C75 162.167 75.1667 161 75.5 160C75.8333 158.667 76 157.5 76 156.5C76.6667 152.833 76.6667 148.667 76 144C75.6667 139.333 76 135 77 131C77.6667 129.667 78 128 78 126C78 124 77.6667 122 77 120C74 118.667 72 118.333 71 119C70.3333 119.667 69.6667 120 69 120C70.3333 117.333 71.1667 115.833 71.5 115.5C72.1667 115.167 73 115 74 115C72.6667 113.333 72.6667 112 74 111C75.3333 109.667 76.3333 108 77 106C75.6667 103 75.3333 101.5 76 101.5C76.6667 101.167 77.1667 100.667 77.5 100C78.8333 95.3333 79 88.8333 78 80.5C77 72.1667 75.6667 64.6667 74 58C75.6667 57.6667 77.6667 57.5 80 57.5C82.6667 57.1667 84.1667 57.6667 84.5 59C85.1667 58 87 57.1667 90 56.5C92.3333 57.1667 94.8333 57.5 97.5 57.5C100.167 57.5 102.667 57.5 105 57.5C107.333 57.1667 109.5 56.6667 111.5 56C113.5 55.3333 115.167 54.1667 116.5 52.5C118.167 54.1667 120.333 55.3333 123 56C125.667 56.6667 128.5 57 131.5 57C134.833 56.6667 138 56.1667 141 55.5C144 54.8333 146.5 54.1667 148.5 53.5C157.833 54.5 165.333 55 171 55C176.667 55 182.5 55.3333 188.5 56C191.167 54.6667 193.667 54.1667 196 54.5C198.667 54.5 201.167 54.8333 203.5 55.5C205.833 56.1667 208.167 56.6667 210.5 57C212.833 57.3333 215.167 56.8333 217.5 55.5C220.5 55.8333 223 56.1667 225 56.5C227.333 56.8333 229.167 56.6667 230.5 56C233.833 56 236.833 56 239.5 56C242.167 56 244.833 56.1667 247.5 56.5C250.5 56.8333 253.167 56.8333 255.5 56.5C258.167 55.8333 260.167 54.5 261.5 52.5C265.5 54.8333 269.167 55.6667 272.5 55C275.833 54.3333 279.167 53.6667 282.5 53C284.5 52.6667 286.5 52.8333 288.5 53.5C290.5 53.8333 292.333 53.8333 294 53.5C296.667 53.1667 299 52.3333 301 51C303 49.6667 305.333 50.3333 308 53C311.667 52.6667 315.333 52.6667 319 53C322.667 53.3333 326 53.6667 329 54C332.333 54 335.5 53.8333 338.5 53.5C341.5 52.8333 344 51.6667 346 50C348.667 50.6667 350.167 51.1667 350.5 51.5C351.167 51.5 351.667 52.1667 352 53.5C358.667 51.1667 363.667 49.6667 367 49C370.667 48.3333 374.333 47.1667 378 45.5C379.667 46.1667 381.333 47 383 48C385 48.6667 386.333 49.8333 387 51.5C390.667 50.8333 394.833 51 399.5 52C404.167 52.6667 408.333 53.1667 412 53.5C413.333 51.1667 415 50 417 50C419 50 420.833 50.8333 422.5 52.5C424.167 53.8333 425.167 55.6667 425.5 58C426.167 60 425.5 62.1667 423.5 64.5C424.833 66.1667 425 67.6667 424 69C423 70.3333 423.167 71.8333 424.5 73.5C426.167 72.5 427.833 72 429.5 72C431.5 72 432.667 72.6667 433 74C433.333 75.6667 432.833 76.3333 431.5 76C430.5 75.6667 429.5 76.1667 428.5 77.5C427.5 78.5 426.833 80 426.5 82C426.5 83.6667 425.667 85 424 86C424 87.6667 424.833 88.3333 426.5 88C428.5 87.6667 429.667 88.3333 430 90C432.333 90.3333 433.333 90.8333 433 91.5C433 91.8333 433.333 92.8333 434 94.5ZM99.5 154.5C98.5 155.5 97.5 156.167 96.5 156.5C95.5 156.833 95.1667 157.667 95.5 159C94.5 157.667 94.3333 156.5 95 155.5C96 154.5 97.5 154.167 99.5 154.5ZM417 61C415.333 60.3333 414 60 413 60C412.333 60 411.333 59.5 410 58.5C409.333 59.8333 407.667 60 405 59C402.333 58 400.5 58.3333 399.5 60C397.833 64.3333 395.667 67.5 393 69.5C390.333 71.5 387.167 72.8333 383.5 73.5C380.833 74.5 378.667 75.5 377 76.5C375.667 78.1667 374.5 79.6667 373.5 81C372.833 82 371.667 83 370 84C371.667 85.6667 373.667 86.3333 376 86C378.667 85.3333 380.667 85.3333 382 86C383.667 82.6667 385.167 80.5 386.5 79.5C388.167 78.1667 390.333 77.6667 393 78C393.667 74 395 71.6667 397 71C399.333 70.3333 401.333 70.5 403 71.5C403.333 69.8333 404.667 69 407 69C409.667 69 410.5 68.1667 409.5 66.5C412.167 65.5 414.167 64.8333 415.5 64.5C416.833 64.1667 417.333 63 417 61ZM402.5 76C401.5 76.6667 400.333 76.8333 399 76.5C398 75.8333 396.833 75.8333 395.5 76.5C398.167 78.5 400 79.3333 401 79C402.333 78.3333 402.833 77.3333 402.5 76ZM414.5 103.5C413.833 101.833 413.167 101 412.5 101C411.833 100.667 411 100.667 410 101C409.333 101 408.333 101.167 407 101.5C406 101.833 404.833 101.833 403.5 101.5C404.5 103.167 406.167 103.833 408.5 103.5C410.833 103.167 412.833 103.167 414.5 103.5ZM388 62C385 59.3333 382.333 58.5 380 59.5C378 60.1667 376 61.1667 374 62.5C372.333 63.5 370.5 64.6667 368.5 66C366.833 67.3333 365 68 363 68C361.667 70.3333 359.667 72 357 73C358.667 75.3333 360 76.3333 361 76C362 75.3333 363.167 75.3333 364.5 76C367.833 72 370.5 70.1667 372.5 70.5C375.167 68.1667 377.5 66.1667 379.5 64.5C381.5 62.8333 384.333 62 388 62ZM394 81.5C393 80.5 392 80.5 391 81.5C390 82.5 389 82.6667 388 82C385 84.6667 383.333 86.3333 383 87C383 87.6667 382.667 88.3333 382 89C381 88.3333 380 88.1667 379 88.5C378.333 88.5 377.5 88.6667 376.5 89C376.5 90.6667 376.167 91.6667 375.5 92C374.833 92.3333 374.667 93.3333 375 95C380 93.6667 382.667 91.6667 383 89C384.667 89 385.833 88.1667 386.5 86.5C387.5 84.8333 388.833 85 390.5 87C390.167 85.3333 390.5 84.3333 391.5 84C392.833 83.6667 393.667 82.8333 394 81.5ZM419.5 115C419.833 112.667 419.167 111.167 417.5 110.5C416.167 109.833 414.667 109.167 413 108.5C412.667 111.833 412 113.5 411 113.5C410 113.167 409.167 113.333 408.5 114C406.167 115.667 403.833 116.833 401.5 117.5C399.167 117.833 397.667 116.833 397 114.5C398 114.5 399 114.5 400 114.5C401 114.167 401.833 113.667 402.5 113C406.167 111.667 408 111.333 408 112C408 112.667 408.5 112.833 409.5 112.5C410.167 110.5 409.667 109.833 408 110.5C406.333 110.833 405.333 110.333 405 109C403.333 108.667 401.833 108.5 400.5 108.5C399.5 108.167 398.333 108.333 397 109C397.667 110.333 397.333 111.333 396 112C394.667 112.667 394 113.833 394 115.5C396 118.5 397.667 119.833 399 119.5C400.667 118.833 402.167 118.833 403.5 119.5C404.167 123.5 404.667 125.5 405 125.5C405.667 125.167 406.167 124.667 406.5 124C406.833 123.333 407.167 122.5 407.5 121.5C408.167 120.5 408.833 120 409.5 120C410.833 120 412 120.167 413 120.5C414 120.5 414.833 120.5 415.5 120.5C416.5 117.833 417.167 116.333 417.5 116C418.167 115.667 418.833 115.333 419.5 115ZM364.5 60C360.167 60.3333 356.167 60.6667 352.5 61C348.833 61 346.5 63 345.5 67C347.167 67.3333 348.167 68 348.5 69C349.167 70 350.333 70.8333 352 71.5C353.667 68.1667 355.833 66.3333 358.5 66C361.5 65.3333 363.5 63.3333 364.5 60ZM414 124.5C410 126.167 407.167 127.833 405.5 129.5C403.833 131.167 401.833 132.833 399.5 134.5C400.167 138.167 401.333 140.333 403 141C408.333 137.667 412 132.167 414 124.5ZM419.5 132.5C418.833 135.5 416.333 137.833 412 139.5C412 142.833 411.167 144.833 409.5 145.5C408.167 146.167 406.667 147 405 148C406.333 149.333 406.833 150.667 406.5 152C406.167 153 406 154 406 155C408 154.667 409.5 154.333 410.5 154C411.833 153.333 413.333 153.333 415 154C419.333 149.667 421.333 145.5 421 141.5C421 137.5 420.5 134.5 419.5 132.5ZM417.5 160C413.167 161 410 163 408 166C406 169 406.167 172.833 408.5 177.5C410.833 179.167 413 178.667 415 176C414 173.667 414.5 171.167 416.5 168.5C418.833 165.5 419.167 162.667 417.5 160ZM418.5 184.5C415.833 185.167 414.833 186.167 415.5 187.5C416.167 188.5 416.167 189.333 415.5 190C413.167 190.667 412.333 192.333 413 195C414 197.667 415.333 199.667 417 201C418 199 418.667 196.5 419 193.5C419.333 190.167 419.167 187.167 418.5 184.5ZM265.5 69C262.833 68.3333 260.333 68.5 258 69.5C255.667 70.1667 253.667 70.6667 252 71C252.667 69 253.833 68 255.5 68C257.167 68 258.833 67.6667 260.5 67L253 62.5C249.333 67.1667 244.667 70.8333 239 73.5C233.333 75.8333 228.667 79.1667 225 83.5C225.333 85.5 224.833 87.1667 223.5 88.5C222.167 89.5 221 90.8333 220 92.5C219.333 93.8333 219.167 95.1667 219.5 96.5C220.167 97.8333 221.5 98.8333 223.5 99.5C227.5 95.8333 230.333 93 232 91C233.667 89 235.833 87.3333 238.5 86C239.167 88.3333 239.667 88.5 240 86.5C240.333 84.1667 241.833 83.3333 244.5 84C246.167 82 247.333 80.8333 248 80.5C249 79.8333 249.833 79.1667 250.5 78.5C251.167 77.8333 251.833 77.3333 252.5 77C253.167 76.6667 254 76.6667 255 77C255.667 75 257 73.8333 259 73.5C261.333 73.1667 262.667 71.6667 263 69H265.5ZM243.5 62.5C239.167 63.5 235.167 63.6667 231.5 63C228.167 62.3333 224.5 62.6667 220.5 64C218.833 66 218.167 68.3333 218.5 71C219.167 73.3333 219.333 76.1667 219 79.5C224 78.5 228.5 76.5 232.5 73.5C236.833 70.1667 240.5 66.5 243.5 62.5ZM286.5 63C284.833 62 283.333 61.6667 282 62C280.667 62 279 61.8333 277 61.5C275.667 63.8333 274.333 66.1667 273 68.5C272 70.8333 269.667 72.1667 266 72.5C265 74.1667 263.833 75.8333 262.5 77.5C261.167 79.1667 258.667 79.6667 255 79C254 81.6667 252.667 83 251 83C249.333 82.6667 247.667 82.8333 246 83.5C242.667 86.8333 239.333 90.1667 236 93.5C233 96.8333 229 99.5 224 101.5C223.667 103.167 224 104.167 225 104.5C226 104.5 226.5 105.333 226.5 107C225.5 108.333 224.333 109.5 223 110.5C222 111.167 221.167 112.333 220.5 114C223.5 112.667 226.333 110.667 229 108C231.333 110.667 231.833 112.5 230.5 113.5C229.167 114.167 228.167 115.5 227.5 117.5C225.167 116.833 223.667 117 223 118C222.333 118.667 221.333 119.167 220 119.5C222 121.833 222.833 123.167 222.5 123.5C222.167 123.5 222.333 123.833 223 124.5C224 124.5 225 124.333 226 124C227 123.667 228 123.833 229 124.5C228 125.167 226.833 126 225.5 127C224.167 128 223 129.167 222 130.5C221.333 131.833 221 133.167 221 134.5C221 135.833 221.833 137 223.5 138C224.167 137.333 224.667 136.667 225 136C225.333 135 226.167 134.167 227.5 133.5C230.167 131.833 231.667 130.833 232 130.5C232.333 130.167 232.833 130 233.5 130C236.167 133.333 237.667 134.667 238 134C240 132 242 131 244 131C244.333 129.333 243.833 128.5 242.5 128.5C241.167 128.167 240.167 127.667 239.5 127C238.833 130.333 237.333 132.167 235 132.5C233.333 130.833 232.833 129.5 233.5 128.5C234.5 127.167 236.167 126.667 238.5 127C237.167 126.333 236.667 125.167 237 123.5C237.333 121.5 238.667 120.667 241 121C242 122.667 242.667 123.167 243 122.5C243.667 121.833 244.833 121.833 246.5 122.5C249.167 121.167 250.833 119.667 251.5 118C255.167 115 256.833 112 256.5 109C257.5 109 258.333 108.667 259 108C259.667 107.333 260.667 107.333 262 108C258 108 255.833 107.667 255.5 107C255.5 106.333 255.333 105.667 255 105C257 104.333 258.5 103.333 259.5 102C260.833 100.667 262.833 99.8333 265.5 99.5C267.5 98.1667 268.5 97.3333 268.5 97C268.833 96.3333 269.333 95.6667 270 95C273 92 275.833 90.1667 278.5 89.5C281.167 88.5 283.667 87.3333 286 86C286.667 82 286.667 78.1667 286 74.5C285.667 70.5 285.833 66.6667 286.5 63ZM263.5 116C261.5 115.333 260 115.167 259 115.5C258.333 115.833 257.667 116.333 257 117C257.667 118.667 258.833 119.5 260.5 119.5C262.167 119.167 263.167 118 263.5 116ZM291.5 166.5C290.5 164.5 290.167 162.833 290.5 161.5C291.167 160.167 291.5 158.167 291.5 155.5C287.5 156.833 285.5 157.167 285.5 156.5C285.833 155.833 285.667 155.5 285 155.5C281.667 153.5 279.667 152.833 279 153.5C278.333 153.833 277.667 153.667 277 153C280 152.333 281.833 152.333 282.5 153C283.167 153.667 284 154.167 285 154.5C285 152.5 285.333 151.167 286 150.5C286.667 149.5 286.667 148.167 286 146.5C287.333 145.5 288.333 145 289 145C290 144.667 290.833 144.333 291.5 144C290.833 142.333 290.833 140.167 291.5 137.5C292.167 134.5 291.167 133 288.5 133C284.833 136.333 282.833 137.5 282.5 136.5C282.167 135.5 281.5 135.333 280.5 136C280.833 138.667 280.333 140.5 279 141.5C277.667 142.5 276.333 142.833 275 142.5C273.333 139.833 273 138.5 274 138.5C275 138.5 275.667 137.833 276 136.5C279.333 135.167 281.667 134.5 283 134.5C284.333 134.167 285.5 133.5 286.5 132.5C284.167 132.167 282.167 132.167 280.5 132.5C278.833 132.5 276.833 132.833 274.5 133.5C273.833 130.5 273.667 128.667 274 128C274.333 127.333 275.167 127.333 276.5 128C277.833 131 278.833 132.167 279.5 131.5C280.5 130.5 281.5 130.333 282.5 131C283.833 128 284.167 126.333 283.5 126C282.833 125.667 282.5 125 282.5 124C284.167 123.333 285.5 123 286.5 123C287.833 123 289.5 122.833 291.5 122.5C291.833 119.833 290.833 117.667 288.5 116C286.5 118.667 284.5 119.667 282.5 119C281.833 120.333 281.5 121.333 281.5 122C281.5 122.333 281 123 280 124C279.333 121.667 280 119.667 282 118C284 116.333 285.167 114.5 285.5 112.5C285.833 111.167 285.333 110.333 284 110C282.667 109.667 281.167 110 279.5 111C279.167 109.333 279.5 108.5 280.5 108.5C281.5 108.167 282.5 108 283.5 108C284.5 108 285.5 108 286.5 108C287.5 108 288.167 107.667 288.5 107C286.5 106.333 286 105 287 103C288 101 287.833 99.3333 286.5 98C283.833 98.6667 281.833 100 280.5 102C279.167 103.667 276.833 104.333 273.5 104C273.5 105.667 273 107 272 108C271 108.667 269.833 109.333 268.5 110C267.5 110.333 266.5 110.833 265.5 111.5C264.5 111.833 263.833 112.667 263.5 114C266.5 114.333 268.333 114.833 269 115.5C270 116.167 270.167 116.833 269.5 117.5C266.167 119.167 264.333 120.167 264 120.5C264 120.5 263.667 120.167 263 119.5C260.333 120.5 258.833 121.333 258.5 122C258.167 122.333 257.667 122.667 257 123C254 121.667 252.333 121.5 252 122.5C251.667 123.5 251 124.167 250 124.5C247.333 124.5 245.667 124.5 245 124.5C244.333 124.5 243.833 124.667 243.5 125C243.833 127 244.667 128 246 128C247.667 128 248.833 127.333 249.5 126C249.833 128 249.667 129.333 249 130C248.667 130.333 248 130.667 247 131C246.333 131.333 245.5 131.667 244.5 132C243.833 132 243.333 132.5 243 133.5C240.667 135.167 239 136.5 238 137.5C237.333 138.5 235.833 138.833 233.5 138.5C229.167 141.833 225.833 144.5 223.5 146.5C221.5 148.167 220.5 151.167 220.5 155.5C223.167 154.833 226 153.833 229 152.5C232.333 151.167 234.833 151.333 236.5 153C238.167 150 239.667 148.167 241 147.5L248 144.5C248.667 142.833 249 141.833 249 141.5C249.333 140.833 249.5 140 249.5 139C253.833 138 256.667 137 258 136C259.333 134.667 260 133.667 260 133C262 132 263.333 131 264 130C265 128.667 266.667 127.667 269 127C270 127 270.667 127.667 271 129C271.333 130 271.667 131.333 272 133C271 133.333 269.833 133.5 268.5 133.5C267.167 133.5 266.333 134.167 266 135.5C264.333 139.167 262.833 141.167 261.5 141.5C260.167 141.833 259.333 142.667 259 144C258.333 142.333 257 142 255 143C253 143.667 251.667 144.5 251 145.5C248.667 148.167 247.167 149.667 246.5 150C245.833 150 245.333 150.333 245 151C246 151.333 246.833 151 247.5 150C248.5 148.667 249.5 148.667 250.5 150C245.5 153.333 240.667 156.667 236 160C231.333 163 226.333 166 221 169C221 172 221.333 174.167 222 175.5C222.667 176.5 223.5 177.667 224.5 179C225.167 177 226 176 227 176C228 176 228.833 176.167 229.5 176.5C230.167 175.167 231 173.667 232 172C233.333 170.333 234.667 168.667 236 167C239.667 165 241.5 164.333 241.5 165C241.833 165.333 242.333 165.5 243 165.5C244.667 163.5 245.833 162.5 246.5 162.5C247.167 162.167 248 162.5 249 163.5C247.333 160.833 246.167 159.167 245.5 158.5C246.833 158.167 247.833 157.667 248.5 157C249.167 156.333 249.833 155.833 250.5 155.5C251.5 154.167 252 153 252 152C252.333 151 253.167 150.333 254.5 150C256.167 151.333 258.333 152.5 261 153.5C261 150.833 261.5 149.5 262.5 149.5C263.833 149.167 264.833 149.333 265.5 150C264.5 148.333 264.333 147.167 265 146.5C266 145.5 266.333 144.167 266 142.5C267 145.167 267.667 147.5 268 149.5C268.333 151.167 269.167 151.333 270.5 150C270.5 155.667 269 159.333 266 161C263 162.333 260.333 163.333 258 164C258.333 164.667 257.833 165.5 256.5 166.5C255.167 167.167 253.667 167.167 252 166.5C251.333 168.5 250.5 170.167 249.5 171.5C248.5 172.833 246.833 173.5 244.5 173.5C243.833 175.167 242.667 176.333 241 177C239.667 177.333 238.5 178.167 237.5 179.5C235.167 180.5 233 181.667 231 183C229.333 184.333 227.667 185.833 226 187.5C224.667 188.833 223.667 190.333 223 192C222.667 193.667 223.5 195.5 225.5 197.5C225.833 195.167 226.167 193.667 226.5 193C227.167 192.333 228 191.667 229 191C232.333 194 234.667 194.5 236 192.5C236.667 190.833 237.333 189.667 238 189C238.667 188.333 239.833 188.667 241.5 190C246.5 190 249.833 189.333 251.5 188C253.167 186.333 253.333 184.833 252 183.5C251 181.167 250.333 179.667 250 179C249.667 178.333 249.667 177.667 250 177C252.667 175.667 254.167 175.167 254.5 175.5C255.167 175.5 256.5 175.667 258.5 176C261.167 175.667 263.667 175.833 266 176.5C268.333 176.833 270.333 176.333 272 175C272.667 171 274.5 169 277.5 169C280.5 168.667 283.5 167.667 286.5 166L291.5 166.5ZM269 156.5C265.667 156.5 263.833 156.5 263.5 156.5C260.5 158.167 258.833 158.833 258.5 158.5C258.167 157.833 257.5 157.667 256.5 158C258.5 159.667 260.333 160.333 262 160C264 159.333 266.333 158.167 269 156.5ZM232.5 138.5C230.833 139.5 229.167 139.667 227.5 139C226.167 138.333 225.333 138.833 225 140.5C228.667 140.5 231.167 139.833 232.5 138.5ZM289.5 186.5C290.167 184.833 290.167 183.333 289.5 182C288.833 180.333 288.833 178.667 289.5 177C287.833 176.667 286.667 176.5 286 176.5C285.667 176.167 284.833 176.333 283.5 177C282.5 179.333 281.5 181.167 280.5 182.5C279.833 183.5 278.667 184.333 277 185C274 185.667 272.333 186.167 272 186.5C271.667 186.5 271.167 186.667 270.5 187C268.5 191 266.5 193.5 264.5 194.5C262.833 195.167 261.667 196.667 261 199C263 198.333 264.667 197.667 266 197C267.667 196 269.5 196 271.5 197C271.5 194.667 272.333 193.833 274 194.5C276 194.833 277.167 194 277.5 192C278.833 191 280.333 189.667 282 188C284 186.333 286.5 185.833 289.5 186.5ZM270 180C268.333 180.667 267.167 180.667 266.5 180C266.167 179.333 265.5 178.833 264.5 178.5C264.5 179.167 264.5 180.167 264.5 181.5C264.5 182.5 264 183.333 263 184C260.333 185 258.5 185.5 257.5 185.5C256.833 185.5 256.5 185.833 256.5 186.5C258.167 186.833 259.833 187 261.5 187C263.5 186.667 264.833 187.333 265.5 189C265.167 184.333 265.333 182.167 266 182.5C266.667 182.5 267.333 182.5 268 182.5L270 180ZM248.5 168C247.167 167 245.833 166.667 244.5 167C243.167 167 242.5 167.667 242.5 169C243.833 169 244.833 169.167 245.5 169.5C246.5 169.5 247.5 169 248.5 168ZM229.5 158.5C228.5 159.833 227.167 160 225.5 159C224.167 158 223.167 158 222.5 159C225.5 161 227.167 161.833 227.5 161.5C227.833 161.167 228.333 161 229 161L229.5 158.5ZM263.5 200.5C260.167 201.167 257.667 201.5 256 201.5C254.667 201.5 253.833 202 253.5 203C257.167 204 259 204.167 259 203.5C259.333 202.5 259.833 201.833 260.5 201.5L263.5 200.5ZM266 205C263 206.333 261.333 207 261 207C260.667 206.667 260.167 206.5 259.5 206.5C259.5 209.833 260.333 210.833 262 209.5C264 208.167 265.333 206.667 266 205ZM260 194C260.333 190.667 260.167 188.833 259.5 188.5C259.167 188.167 258.5 188.167 257.5 188.5C256.5 188.5 255.5 188.833 254.5 189.5C253.5 189.833 253 190.333 253 191C251.333 190.333 249.833 190.833 248.5 192.5C247.5 193.833 246 194.667 244 195C241.667 198 240 199.5 239 199.5C238.333 199.5 237.833 199.833 237.5 200.5C234.833 203.5 231.833 206 228.5 208C225.5 209.667 224.333 212.667 225 217C226.667 217 227.667 216.667 228 216C228.667 215.333 229.333 214.5 230 213.5C231.333 215.167 232 215.333 232 214C232.333 212.333 233.5 211.667 235.5 212C237.5 210.333 238.5 209.167 238.5 208.5C238.5 207.833 238.833 207.167 239.5 206.5C241.5 205.167 242.667 204.167 243 203.5C243.667 202.833 244.333 202.333 245 202C246 203 246.667 203.5 247 203.5C247.667 203.5 248.833 204 250.5 205C252.167 202.333 253 200.667 253 200C253 199.333 253.5 199.167 254.5 199.5C254.833 199.167 254.167 199.167 252.5 199.5C251.167 199.5 250 199.833 249 200.5C249 197.833 249.833 196.167 251.5 195.5C253.5 194.833 255.167 193.833 256.5 192.5L260 194ZM124.5 86C122.5 83.6667 121.167 82.6667 120.5 83C119.833 83.3333 118.833 83.5 117.5 83.5C119.833 85.8333 121.167 86.5 121.5 85.5C122.167 84.1667 123.167 84.3333 124.5 86ZM125 89C124.333 88 123 87.5 121 87.5C119 87.1667 118 87.8333 118 89.5C119.667 89.1667 122 89 125 89ZM133 69.5C129.333 68.1667 127.167 67.1667 126.5 66.5C123.5 67.5 121 68.8333 119 70.5C117.333 72.1667 115.167 73.1667 112.5 73.5C113.167 75.1667 112.5 76.3333 110.5 77C108.833 77.3333 107.667 77.3333 107 77C106.333 79 105.667 80.1667 105 80.5C104.667 80.8333 103.667 80.8333 102 80.5C101.333 81.8333 100.5 83.1667 99.5 84.5C98.8333 85.5 97.5 86.3333 95.5 87C93.5 87 91.6667 87.1667 90 87.5C89.3333 85.8333 88.3333 85.3333 87 86C86 86.6667 85.5 85.8333 85.5 83.5C87.1667 83.8333 88.5 83.8333 89.5 83.5C90.8333 83.1667 92.1667 82.8333 93.5 82.5C92.1667 79.8333 92.5 77.8333 94.5 76.5C96.5 75.1667 98.5 73.6667 100.5 72C99.5 71.3333 98.5 71.3333 97.5 72C96.5 72.6667 95.6667 72.6667 95 72C95 70.3333 95.6667 69.5 97 69.5C98.3333 69.1667 99 68.1667 99 66.5C96.6667 66.1667 94 66.3333 91 67C88 67.3333 85.6667 67.8333 84 68.5C83.6667 70.1667 83.6667 71.5 84 72.5C84.6667 73.1667 85.3333 74.1667 86 75.5C85 76.5 84.1667 78 83.5 80C83.1667 82 83 84.1667 83 86.5C83 88.5 83.3333 90.1667 84 91.5C85 92.8333 86.5 93.1667 88.5 92.5C86.8333 95.1667 86.3333 96.6667 87 97C88 97 88.6667 97.3333 89 98C87 99 86 100.333 86 102C86 103.333 86.3333 104 87 104C87.6667 102.333 88.5 102 89.5 103C90.8333 103.667 92.1667 103.333 93.5 102C96.8333 100.333 99.6667 99.6667 102 100C104.667 100.333 106.5 100.167 107.5 99.5C106.833 99.5 106 99.5 105 99.5C104.333 99.1667 103.333 99 102 99C105 94.6667 105.667 92.3333 104 92C105.667 90 106.833 88.5 107.5 87.5C108.167 86.5 108.833 85.6667 109.5 85C110.167 84 110.833 83.1667 111.5 82.5C112.167 81.8333 112.5 81.1667 112.5 80.5C116.167 80.1667 118.667 79.6667 120 79C121.333 78.3333 123 78.3333 125 79C125.333 78 125.167 77 124.5 76C123.833 75 124 74.1667 125 73.5C128 71.1667 129.833 70 130.5 70C131.5 70 132.333 69.8333 133 69.5ZM256 218C255 217 254.833 216.167 255.5 215.5C256.5 214.833 256.5 213.667 255.5 212C253.5 212.333 251.833 213.167 250.5 214.5C249.5 215.833 248.167 216.833 246.5 217.5C248.167 214.167 248.667 212.5 248 212.5C247.333 212.167 247.5 211.667 248.5 211C250.833 211.667 252.333 211.667 253 211C253.667 210 254.5 209.333 255.5 209C254.5 208.333 253.333 208.167 252 208.5C250.667 208.5 249.333 208.333 248 208C244.667 210.333 242.5 212.333 241.5 214C240.833 215.333 240 216.667 239 218C241.667 219 243.833 218.667 245.5 217C245.5 219.333 245 220.667 244 221C243 221 241.833 221.167 240.5 221.5C238.833 224.167 236.667 226.5 234 228.5C231.667 230.167 229.167 231.833 226.5 233.5C225.833 236.167 225.667 238.833 226 241.5C226.333 243.833 226.167 246 225.5 248C228.167 245.333 230.667 243.167 233 241.5C235.667 239.5 237.833 236.667 239.5 233C242.167 231 243.5 230 243.5 230C243.833 229.667 243.833 229 243.5 228C244.833 227.667 246 227 247 226C248 225 249.333 224.5 251 224.5C252.333 222.167 253.167 220.667 253.5 220C254.167 219.333 255 218.667 256 218ZM289.5 197C287.833 197 286.667 197.5 286 198.5C285.333 199.5 284 200 282 200C282 202.667 280.5 204.167 277.5 204.5C276.5 206.833 275 208.833 273 210.5C271.333 212.167 269.5 213.833 267.5 215.5C265.5 216.833 263.667 218.5 262 220.5C260.333 222.167 259 224.333 258 227C252.667 231.333 247.833 235.333 243.5 239C239.167 242.333 235.167 246.333 231.5 251C230.167 254.667 229.667 256.5 230 256.5C230.667 256.5 231 256.833 231 257.5C228.667 258.833 226.833 260.833 225.5 263.5C224.167 265.833 223.833 269.167 224.5 273.5C227.5 274.167 229 275 229 276C229.333 276.667 229 277.333 228 278C226 281.333 224.833 284.667 224.5 288C224.167 291 224.167 294.167 224.5 297.5C227.167 297.833 229.167 298.333 230.5 299C231.833 299.667 233.333 300.333 235 301C234.667 302.333 233.833 303 232.5 303C231.167 303 230.167 303.333 229.5 304C229.167 305 228.667 306 228 307C227.333 308 226.833 309 226.5 310C226.167 311 226 312 226 313C226.333 313.667 227.333 314.333 229 315C228.333 312.333 228.667 311 230 311C231.667 310.667 233.167 310.167 234.5 309.5C235.833 307.167 237 305.167 238 303.5C239.333 301.833 241.167 301.333 243.5 302C243.833 298.333 244.167 296.333 244.5 296C245.167 295.667 245.333 295 245 294C247.333 290.667 249 289.167 250 289.5C251.333 289.5 252.333 288.667 253 287C253 286 254 284.833 256 283.5C258 282.167 260.333 281.833 263 282.5C261.333 279.167 261 277 262 276C263 275 264 274.167 265 273.5C267.667 274.167 269.333 274.667 270 275C270.667 275 271.167 274.667 271.5 274C271.167 273 270.167 272.667 268.5 273C266.833 273.333 265.667 273.167 265 272.5C266.333 270.833 267.667 269.833 269 269.5C270.667 269.167 272.333 268.5 274 267.5C275.667 267.833 276.833 267.667 277.5 267C278.167 266.333 279 265.667 280 265C282 262.667 283.167 261 283.5 260C284.167 259 285.333 258.5 287 258.5C287 255.833 287 253.333 287 251C287.333 248.333 286.667 246.667 285 246C286.667 243 287.833 240.167 288.5 237.5C289.5 234.5 289.667 231 289 227C285.667 228.667 282.667 230.667 280 233C277.667 235 275.167 237 272.5 239C272.833 238 272.667 237.167 272 236.5C271.667 235.833 271.333 234.833 271 233.5C273 233.167 274 232.333 274 231C274.333 229.667 275.333 228.333 277 227C279 223.667 279.667 221.833 279 221.5C278.667 221.167 278.667 220.667 279 220C281 219 282.167 218.833 282.5 219.5C282.833 219.833 283.5 220 284.5 220C285.5 216.333 287 212.833 289 209.5C291.333 205.833 291.5 201.667 289.5 197ZM285.5 272C281.833 273.667 278.667 275.667 276 278C273.667 280.333 271.333 282.833 269 285.5C270 286.167 271 286.5 272 286.5C273 286.167 274 285.833 275 285.5C276 284.833 277 284.333 278 284C279 283.667 280.167 283.667 281.5 284C281.833 282.667 282.167 281.667 282.5 281C283.167 280 283.167 278.833 282.5 277.5C283.5 276.833 284.333 276.167 285 275.5C285.667 274.833 285.833 273.667 285.5 272ZM124.5 103C123.167 103 121.833 103.167 120.5 103.5C119.5 103.5 119 104 119 105C115.667 108.667 113.667 111.167 113 112.5C112.333 113.5 111.5 114.5 110.5 115.5C108.167 115.167 106.667 115.667 106 117C105.333 118 104 118.333 102 118C99.6667 122 97 125.5 94 128.5C94.3333 129.833 94 131.167 93 132.5C92.3333 133.833 91.1667 134.167 89.5 133.5C90.1667 135.167 91 135.833 92 135.5C93.3333 134.833 94.3333 135.167 95 136.5C95.3333 134.5 96.1667 132.833 97.5 131.5C98.8333 130.167 100.667 130.167 103 131.5C104.333 129.167 106.5 128.167 109.5 128.5C114.167 123.833 117.333 119.5 119 115.5C121 111.5 122.833 107.333 124.5 103ZM265.5 292C262.833 290.667 260.833 290.5 259.5 291.5C258.5 292.167 257 292.833 255 293.5C258 294.5 260.333 295 262 295C263.667 294.667 264.833 293.667 265.5 292ZM95 123C93 121 91.1667 120.667 89.5 122C87.8333 123 86.1667 123.833 84.5 124.5C85.5 125.167 85.5 126.167 84.5 127.5C83.8333 128.5 84 129.333 85 130C86.6667 129 88 127.667 89 126C90.3333 124.333 92.3333 123.333 95 123ZM266 295.5L262 299.5C256 302.5 252 305.5 250 308.5C248.333 311.167 245.833 312.5 242.5 312.5C240.5 315.167 238 318 235 321C232 323.667 229.167 326.5 226.5 329.5C227.5 331.5 227.5 333.333 226.5 335C229.5 332 231.833 329.833 233.5 328.5C235.5 326.833 237.833 325.667 240.5 325C245.167 320.667 248.333 317 250 314C251.667 311 254 309.5 257 309.5C256.667 307.833 256.833 306.5 257.5 305.5C258.167 304.167 259 303.167 260 302.5C261.333 301.5 262.5 300.5 263.5 299.5C264.833 298.5 265.667 297.167 266 295.5ZM286 310.5C284.333 308.833 282.833 308.5 281.5 309.5C280.167 310.5 278.5 311.333 276.5 312C276.5 313.333 276 314.5 275 315.5C274 316.167 273.167 316.333 272.5 316C272.5 313.667 271.833 312.833 270.5 313.5C269.5 313.833 268.333 314 267 314C269.667 316 271 317.5 271 318.5C271 319.5 270.5 320 269.5 320C268.5 319.333 267.5 318.667 266.5 318C265.833 317 265 317 264 318C264 315 264.5 313.5 265.5 313.5C266.5 313.5 267.667 313.333 269 313C270 310.333 272.167 308.667 275.5 308C279.167 307 282.333 306.667 285 307C283.667 304.667 283.167 303.167 283.5 302.5C283.833 301.833 284.5 301.333 285.5 301C285.833 299.333 285.667 298 285 297C284.667 296 284.833 295 285.5 294C283.167 293.333 281 293.167 279 293.5C277.333 293.833 276.167 294.833 275.5 296.5C271.833 298.5 270.167 299.833 270.5 300.5C271.167 301.167 271.5 302 271.5 303C269.167 303.667 267.833 304.333 267.5 305C267.5 305.667 267.167 306.333 266.5 307C264.833 306 263.667 306.333 263 308C262.667 309.333 261.667 309.833 260 309.5C259.333 313.167 258.5 315 257.5 315C256.833 314.667 256.167 314.833 255.5 315.5C254.833 318.5 253.833 320.167 252.5 320.5C251.5 320.833 251 321.833 251 323.5C252.667 322.5 254.167 322.167 255.5 322.5C257.167 322.833 258.833 323.333 260.5 324C261.167 322.333 262.167 321.167 263.5 320.5C265.167 319.5 266.333 319.833 267 321.5C264.667 322.167 262.667 323.333 261 325C259.667 326.667 257.5 327.667 254.5 328C253.5 330.667 251.667 332.167 249 332.5C246.667 332.833 245 334.5 244 337.5C242 340.167 239.833 341.833 237.5 342.5C235.5 342.833 234 343.833 233 345.5C230.333 347.5 228.5 349.167 227.5 350.5C226.5 351.833 225.833 353.5 225.5 355.5C225.5 357.167 225.5 359.167 225.5 361.5C225.833 363.5 225.667 365.5 225 367.5C227.667 365.5 229.5 364 230.5 363C231.833 361.667 233 360.5 234 359.5C235.333 358.167 236.667 357.167 238 356.5C239.333 355.833 241 355.667 243 356C243 355.333 243 354.5 243 353.5C243.333 352.167 243.833 351.167 244.5 350.5C248.5 349.167 250.667 348.833 251 349.5C251.333 350.167 252 350.833 253 351.5C253.667 349.833 253.167 348.833 251.5 348.5C250.167 347.833 249.167 347.167 248.5 346.5C249.5 346.167 250.167 345.667 250.5 345C251.167 344 252.333 343.5 254 343.5C255 341.167 255.667 339.833 256 339.5C256.667 338.833 257.5 338.667 258.5 339C258.5 336.333 259.667 335 262 335C264.333 334.667 265.833 333.833 266.5 332.5C270.167 331.167 272.667 329.667 274 328C275.667 326 277.833 324.667 280.5 324C280.5 320 281.167 317.333 282.5 316C284.167 314.667 285.333 312.833 286 310.5ZM288.5 406C286.833 404.333 286.167 402.167 286.5 399.5C287.167 396.5 286.667 393.833 285 391.5C285.667 389.167 286.167 386.667 286.5 384C287.167 381 286.667 378.5 285 376.5C281.667 379.833 278.833 381.167 276.5 380.5C276.167 381.5 275.833 382.5 275.5 383.5C275.167 384.5 274.833 385.5 274.5 386.5C277.5 385.833 279.667 386.167 281 387.5C282.667 388.5 283.5 389.833 283.5 391.5C283.5 392.833 282.833 394.333 281.5 396C280.5 397.333 278.833 398 276.5 398C276.5 399.667 276.333 400.833 276 401.5C275.667 402.167 275.333 402.833 275 403.5C276.667 404.833 278.167 405.5 279.5 405.5C281.167 405.167 282.667 405.833 284 407.5L288.5 406ZM244.5 358.5C242.167 359.5 240.5 360 239.5 360C238.5 359.667 238.167 360 238.5 361C242.167 360.667 244 360.333 244 360C244 359.333 244.167 358.833 244.5 358.5ZM296.5 425.5C297.833 423.833 298.167 422.167 297.5 420.5C297.167 418.5 295.667 417.667 293 418C293.333 419.667 293.167 420.833 292.5 421.5C292.167 421.833 292 422.667 292 424L296.5 425.5ZM287 353.5C286.333 352.833 285.667 352.167 285 351.5C284.667 350.5 283.833 350 282.5 350C281.833 351.667 280.667 352.5 279 352.5C277.333 352.5 276.167 352.833 275.5 353.5C274.5 350.5 275.333 348.333 278 347C280.667 345.667 282.833 343.333 284.5 340C283.167 340 282 340.167 281 340.5C280 340.5 279.167 340.5 278.5 340.5C279.167 339.167 281 338.667 284 339C284.333 337.333 284.167 336 283.5 335C282.833 333.667 283.333 332.333 285 331C281 329.667 278.833 328.667 278.5 328C278.5 327.333 278 327.333 277 328C276 330 274.5 331.667 272.5 333C270.833 334.333 269 335.833 267 337.5C265 339.167 262.667 340 260 340C257 344 255.167 346.833 254.5 348.5C256.833 349.5 258.5 349.5 259.5 348.5C260.833 347.5 262.333 347 264 347C263 350 262.167 351.667 261.5 352C261.167 352 261.167 352.5 261.5 353.5C258.833 354.5 257.5 355.333 257.5 356C257.5 356.667 257.167 357.333 256.5 358C254.5 356 253 355.333 252 356C251.333 356.333 251 357.333 251 359C252.667 360.333 252.667 361.167 251 361.5C249.667 361.833 248.167 362.167 246.5 362.5C245.167 362.833 244 363.5 243 364.5C242.333 365.167 242.333 366.667 243 369C239.667 370.667 237.167 372.167 235.5 373.5C234.167 374.833 232.667 376.333 231 378C229.667 379.333 228.333 381 227 383C226 384.667 225.5 386.833 225.5 389.5C226.167 388.167 227 387.833 228 388.5C229 389.167 230 389.333 231 389C234.333 390 235.5 391 234.5 392C233.5 392.667 233.5 393.333 234.5 394C234.5 397.333 234.333 399.5 234 400.5C231.667 401.167 230.333 401.667 230 402C229.667 402.333 229.167 402.5 228.5 402.5C226.167 407.5 223 411.333 219 414C215 416.667 211.333 419.833 208 423.5C210 424.5 211.833 423.833 213.5 421.5C215.5 419.167 218 418 221 418C224.667 413.333 228.667 409.5 233 406.5C237.667 403.5 242.167 400.167 246.5 396.5C249.833 395.167 252.5 393.833 254.5 392.5C256.833 391.167 258.5 390.5 259.5 390.5C262.5 387.167 264.333 386 265 387C266 387.667 266.5 387.333 266.5 386C268.167 381.667 270 378.833 272 377.5C274 375.833 276.167 375.333 278.5 376C278.5 374.333 277.667 373.667 276 374C274.667 374 273.833 373.5 273.5 372.5C276.833 373.167 278.833 373 279.5 372C281.5 370 282.167 368.667 281.5 368C281.167 367.333 280.667 366.833 280 366.5C282.667 365.5 283.833 364.833 283.5 364.5C283.167 364.167 283.167 363.333 283.5 362C285.167 362.667 286 361.667 286 359C286 356.333 286.333 354.5 287 353.5ZM274 403.5C272.333 402.5 271 401.5 270 400.5C269 399.5 268 399.833 267 401.5C269.667 403.167 270.833 404.5 270.5 405.5C270.5 406.5 270.167 407 269.5 407C271.5 408 273 406.833 274 403.5ZM290.5 413C289.5 412.333 288.833 411.667 288.5 411C288.167 410 287.333 409.333 286 409C281.333 408.333 279.5 408.833 280.5 410.5C277.5 411.5 275.833 411.833 275.5 411.5C275.167 411.167 274.667 411 274 411C269.667 413.333 266.5 415.667 264.5 418C262.5 420 259.833 421.667 256.5 423C257.5 424.667 259 425.667 261 426C263.333 426.333 265.667 426.333 268 426C270.667 425.667 273.167 425.333 275.5 425C277.833 424.667 279.833 424.667 281.5 425C283.167 422.667 284.333 420.5 285 418.5C286 416.5 287.833 414.667 290.5 413ZM276.5 392.5C275.167 390.167 274.167 389 273.5 389C272.833 388.667 272.167 388.833 271.5 389.5C270.167 394.5 268.167 397.167 265.5 397.5C262.833 397.5 260.667 398.333 259 400C258.667 401 257.333 402.333 255 404C253 405.333 251.167 405.833 249.5 405.5C246.5 407.833 245.167 409.333 245.5 410C246.167 410.667 246.167 411 245.5 411C243.167 410.667 241.333 411.333 240 413C239 414.333 237.667 415 236 415C234.667 416 233.667 417.167 233 418.5C232.667 419.5 231.5 419.5 229.5 418.5C230.167 420.167 230.5 421.5 230.5 422.5C230.5 423.5 230.167 424.333 229.5 425C230.833 426 232.167 426.167 233.5 425.5C234.833 424.833 236 424.167 237 423.5C238.333 422.5 239.667 421.667 241 421C242.333 420.333 244 420.333 246 421C247 420.333 248.167 419.667 249.5 419C251.167 418 251.167 417 249.5 416C251.167 414 252.667 412.833 254 412.5C255.667 412.167 256.333 411.333 256 410C256 408.667 256.333 407.833 257 407.5C260.667 407.833 262.333 407.833 262 407.5C262 406.833 262.833 406.667 264.5 407C264.833 402.667 265.833 400.333 267.5 400C269.5 399.333 271 398.333 272 397C273.667 397 274.667 396.667 275 396C275.333 395.333 275.833 394.167 276.5 392.5ZM231 397C231.333 396.333 231.667 395.333 232 394C232.667 392.667 232.333 391.833 231 391.5C230.333 393.5 230 395 230 396C230 396.667 230.333 397 231 397ZM282.5 74.5C281.833 77.5 280.167 79.6667 277.5 81C275.167 82.3333 273.167 84.1667 271.5 86.5C266.167 88.1667 262.833 90.3333 261.5 93C260.5 95.3333 258.167 96.5 254.5 96.5C252.167 98.8333 249.333 100.333 246 101C244.333 105.333 242.5 107.833 240.5 108.5C238.5 109.167 236.833 109.833 235.5 110.5C237.5 106.833 238.167 105 237.5 105C237.167 104.667 237.167 104.167 237.5 103.5C239.167 103.5 240.833 102.333 242.5 100C241.167 96.6667 241.5 95.5 243.5 96.5C245.5 97.1667 246.333 96.3333 246 94C247.333 94.6667 248.167 95.1667 248.5 95.5C248.833 95.5 249.667 95.8333 251 96.5C252.333 93.8333 253 92 253 91C253.333 90 254.333 89.6667 256 90C257.667 87.6667 258.333 86.3333 258 86C258 85.6667 258.333 84.6667 259 83C260.333 83.3333 261.333 83.8333 262 84.5C263 84.8333 264.167 84.6667 265.5 84C265.167 80.6667 266 78.8333 268 78.5C270.333 77.8333 272.333 78.1667 274 79.5C273.333 78.1667 273.167 77.3333 273.5 77C273.833 76.3333 273.833 75.3333 273.5 74C275.167 74.3333 276.833 74.3333 278.5 74C280.167 73.3333 281.5 73.5 282.5 74.5ZM255 108C254.333 108.667 253.333 109 252 109C251 108.667 250.167 108.833 249.5 109.5C251.833 107.167 253.167 106.333 253.5 107C253.833 107.333 254.333 107.667 255 108ZM238.5 97C236.833 97.6667 236 98.6667 236 100C236 101 236 102 236 103C235 101 234.5 99.8333 234.5 99.5C234.833 99.1667 234.833 98.1667 234.5 96.5L238.5 97ZM257 125C255.333 124.667 254.5 125.167 254.5 126.5C254.5 127.5 253.667 128 252 128C255.333 124.667 257 123.667 257 125ZM233 102.5C232 103.167 231 103.833 230 104.5C229.333 104.833 228.5 105 227.5 105C228.5 102.333 229.333 101.167 230 101.5C231 101.833 232 102.167 233 102.5ZM278.5 164.5C277.5 165.167 276.167 165.5 274.5 165.5C272.833 165.5 271.5 165.167 270.5 164.5C273.5 163.833 275 163.167 275 162.5C275.333 161.833 275.833 161.333 276.5 161L278.5 164.5ZM261.5 168C262.167 169.667 261.667 170.333 260 170C258.667 169.667 257.333 169.667 256 170C257.333 169.667 258.167 169.167 258.5 168.5C259.167 167.833 260.167 167.667 261.5 168ZM279.5 252.5C275.167 253.833 272.667 255.667 272 258C273 256 274 254.5 275 253.5C276.333 252.167 277.833 251.833 279.5 252.5ZM271 238.5C268 239.167 266.333 240.5 266 242.5C265.667 244.5 265.167 245.833 264.5 246.5C262.5 247.833 260.333 249.167 258 250.5C256 251.5 253.667 252.333 251 253C250.667 251.667 251.5 250.667 253.5 250C255.5 249 257.333 248.333 259 248C259.667 247.333 260.333 246.5 261 245.5C261.667 244.167 262.833 244 264.5 245C262.833 243.333 262.833 241.5 264.5 239.5C266.167 237.5 268.333 237.167 271 238.5ZM259.5 266.5C257.5 269.167 256.333 270.667 256 271C255.667 271.333 255.167 271.5 254.5 271.5C255.5 269.833 256.333 268.833 257 268.5C257.667 268.167 258 267.5 258 266.5H259.5ZM252 278C249.333 278.667 246.833 279.167 244.5 279.5C246.5 279.5 248 279 249 278C250 276.667 251 276.667 252 278ZM244 282.5C245 283.833 244.5 284.833 242.5 285.5C240.5 285.833 239.167 285.5 238.5 284.5C240.833 284.167 242.667 283.5 244 282.5ZM276.5 344.5C273.167 345.167 271 345.5 270 345.5C269.333 345.167 269 344.5 269 343.5C270.667 344.167 271.833 344.667 272.5 345C273.5 345 274.833 344.833 276.5 344.5ZM276 357C275.333 358.667 274.167 359.667 272.5 360C270.833 360 269.667 360.5 269 361.5C268 360.833 267.167 360.167 266.5 359.5C265.833 358.833 264.667 358.833 263 359.5C263.333 356.167 265 354.833 268 355.5C271.333 355.833 274 356.333 276 357ZM272 374.5C271.333 375.5 270.333 376.167 269 376.5C268 376.833 266.667 377.167 265 377.5C267 376.5 268.167 375.667 268.5 375C268.833 374.333 270 374.167 272 374.5ZM266.5 365C264.5 367.333 262.667 369 261 370C259.333 371 258 372.333 257 374C259.333 373.333 262.167 372.667 265.5 372C265.5 374.333 264.5 375.667 262.5 376C260.833 376.333 259.667 377.333 259 379C256.667 377 255.667 375.833 256 375.5C256.667 374.833 256.667 374.333 256 374C254.333 375 252.5 375.333 250.5 375C248.5 374.667 246.667 375.333 245 377C248 374.333 250.5 372.167 252.5 370.5C254.833 368.833 257.5 367 260.5 365C260.167 361.667 260.667 360.5 262 361.5C263.333 362.5 264.833 362.667 266.5 362V365ZM251.5 386C250.167 385.667 249.333 385.5 249 385.5C248.667 385.5 247.667 385.667 246 386C243.333 387.333 242.667 389.167 244 391.5C242.333 392.833 241.167 392.833 240.5 391.5C240.167 389.833 239.167 389.5 237.5 390.5C241.167 388.833 243.167 387 243.5 385C241.167 381.333 240.333 379.5 241 379.5C241.667 379.167 242.333 379 243 379C244 379 244.833 379 245.5 379C246.167 378.667 246.5 378 246.5 377C248.5 379 249.167 380.167 248.5 380.5C248.167 380.833 248.167 381.5 248.5 382.5L251.5 386Z" fill="#124E78"/>
</g>
<defs>
<clipPath id="clip0_756_2">
<rect width="500" height="500" fill="white"/>
</clipPath>
</defs>
</svg>
