<svg width="500" height="500" viewBox="0 0 500 500" fill="none" xmlns="http://www.w3.org/2000/svg">
<g clip-path="url(#clip0_1_2)">
<rect width="500" height="500" fill="white"/>
<rect y="372" width="500" height="32" fill="#AC80A0" fill-opacity="0.6"/>
<rect x="64" y="500" width="500" height="32" transform="rotate(-90 64 500)" fill="#B7D1DA" fill-opacity="0.5"/>
<rect x="96" y="500" width="500" height="32" transform="rotate(-90 96 500)" fill="#B7D1DA" fill-opacity="0.25"/>
<rect y="404" width="500" height="32" fill="#AC80A0" fill-opacity="0.8"/>
<rect x="32" y="500" width="500" height="32" transform="rotate(-90 32 500)" fill="#B7D1DA" fill-opacity="0.75"/>
<rect y="436" width="500" height="32" fill="#AC80A0" fill-opacity="0.9"/>
<rect y="500" width="500" height="32" transform="rotate(-90 0 500)" fill="#B7D1DA"/>
<rect y="468" width="500" height="32" fill="#AC80A0"/>
<rect x="4" y="4" width="492" height="492" stroke="#124E78" stroke-width="8"/>
<path d="M342 171.75C341.167 172.25 340.333 173 339.5 174C338.667 175 338.083 176.083 337.75 177.25C337.417 178.417 337.333 179.5 337.5 180.5C337.833 181.5 338.667 182.333 340 183C340 185 339.417 186.25 338.25 186.75C338.583 188.417 338.5 190.167 338 192C337.667 193.833 338 195.333 339 196.5C338.333 197 338.083 197.917 338.25 199.25C338.417 200.417 338.333 201.25 338 201.75C339 204.083 339 206.583 338 209.25C337.167 211.917 336.917 214.833 337.25 218C337.25 222.167 337 225.417 336.5 227.75C336 229.917 335.917 231.917 336.25 233.75C335.917 234.25 335.5 234.833 335 235.5C334.667 236 334 236.25 333 236.25C332.667 235.917 332.417 235.333 332.25 234.5C332.25 233.667 332.417 233.083 332.75 232.75C331.917 232.417 331.25 231.833 330.75 231C330.417 230 330.083 229 329.75 228C329.583 227 329.333 226 329 225C328.833 224 328.5 223.167 328 222.5C327.667 220 327.167 217.333 326.5 214.5C325.833 211.5 325 208.833 324 206.5C323.667 205.833 323.417 205 323.25 204C323.083 202.833 322.917 201.667 322.75 200.5C322.75 199.167 322.583 197.917 322.25 196.75C322.083 195.583 321.583 194.583 320.75 193.75C319.917 193.917 319.333 193.833 319 193.5C318.833 193.167 318.417 193.167 317.75 193.5C317.583 193 317.417 192.583 317.25 192.25C317.083 191.75 317 191.25 317 190.75C317.333 189.583 317.583 188.667 317.75 188C318.083 187.333 318.417 186.667 318.75 186C315.75 185.333 314.083 184.417 313.75 183.25C313.583 182.083 313.417 180.583 313.25 178.75C312.083 177.917 311.167 177 310.5 176C310 175 309.333 174.083 308.5 173.25C307.667 173.583 306.833 173.667 306 173.5C305.333 173.333 304.833 173.667 304.5 174.5C303.167 173.333 302.417 172.667 302.25 172.5C302.25 172.333 302.083 171.833 301.75 171C302.083 170.667 302.583 170.5 303.25 170.5C303.917 170.5 304.417 170.417 304.75 170.25C304.083 168.417 302.833 167.167 301 166.5C299.167 165.833 297.75 164.75 296.75 163.25C296.083 162.417 295.417 161.667 294.75 161C294.083 160.333 293.417 159.75 292.75 159.25C292.083 158.583 291.333 158.083 290.5 157.75C289.667 157.417 288.667 157.417 287.5 157.75C287.167 157.25 286.75 156.833 286.25 156.5C285.75 156 285.333 155.583 285 155.25C282.333 155.75 279.833 155.917 277.5 155.75C275.167 155.583 273.167 155.667 271.5 156C271.5 157.333 271.5 158.5 271.5 159.5C271.5 160.5 271.167 161.417 270.5 162.25C271 163.25 271.333 164 271.5 164.5C271.833 165 271.583 165.333 270.75 165.5C271.25 165.833 271.583 166.5 271.75 167.5C271.917 168.333 272.167 169 272.5 169.5C271.667 170.333 271.5 171.417 272 172.75C272.667 173.917 273 175.083 273 176.25C274.167 177.917 274.417 179.083 273.75 179.75C273.083 180.417 272.917 181.583 273.25 183.25C273.583 186.917 273.667 189.75 273.5 191.75C273.333 193.583 273.417 195.583 273.75 197.75C273.583 199.25 273.5 200.667 273.5 202C273.667 203.167 273.417 204 272.75 204.5C273.417 206.167 273.5 207.833 273 209.5C272.5 211 272.667 212.25 273.5 213.25C273.333 216.083 273.333 218.75 273.5 221.25C273.667 223.583 273.583 225.75 273.25 227.75C274.083 228.25 274.583 229.083 274.75 230.25C274.917 231.417 275.333 232.333 276 233C274.5 233.667 273.667 234.917 273.5 236.75C273.5 238.583 273.167 239.917 272.5 240.75C273.333 241.583 273.583 242.667 273.25 244C272.917 245.333 272.583 246.417 272.25 247.25C272.917 247.917 273.083 248.667 272.75 249.5C272.417 250.333 272.25 251 272.25 251.5C272.417 252.167 272.667 252.667 273 253C273.333 253.333 273.583 253.667 273.75 254C273.583 254.667 273.333 255.167 273 255.5C272.667 255.833 272.333 256.25 272 256.75C271.833 258.25 272.083 259.333 272.75 260C273.417 260.5 273.833 261.417 274 262.75C273.167 265.083 272.25 266.583 271.25 267.25C270.917 268.75 270.833 269.833 271 270.5C271.333 271 271.5 272 271.5 273.5C272.333 275 272.417 276.083 271.75 276.75C271.25 277.25 271.167 277.917 271.5 278.75C273.667 279.25 274.5 279.833 274 280.5C273.667 281.167 273.167 281.917 272.5 282.75C271.833 283.417 271.167 284.167 270.5 285C270 285.667 269.75 286.417 269.75 287.25C269.75 288.25 270.083 289 270.75 289.5C271.583 289.833 271.583 290.583 270.75 291.75C272.417 290.917 273.333 290.75 273.5 291.25C273.667 291.583 274 291.833 274.5 292C273.333 293.333 272.25 294.917 271.25 296.75C270.417 298.583 270.667 300.25 272 301.75C271.5 302.917 271.417 304.083 271.75 305.25C272.083 306.417 272.5 307.333 273 308C272.333 310.333 272.083 311.75 272.25 312.25C272.583 312.75 272.667 313.417 272.5 314.25C271.833 315.25 271.75 316.083 272.25 316.75C272.75 317.25 272.5 317.667 271.5 318C272 319.333 272.167 321 272 323C271.833 325 272.167 326.667 273 328C274.333 329.333 275.917 330.667 277.75 332C279.583 333.167 282 333.25 285 332.25C288.667 334.083 292.333 335.083 296 335.25C299.667 335.25 303.417 335.25 307.25 335.25C307.75 335.583 308.167 336 308.5 336.5C309 337 309.25 337.75 309.25 338.75C308.417 338.917 307.583 339.417 306.75 340.25C306.25 340.083 305.833 340.417 305.5 341.25C305.167 342.083 304.833 342.833 304.5 343.5C302.333 343.667 300.417 343.5 298.75 343C297.25 342.5 295.667 342.667 294 343.5C293 343 291.667 342.5 290 342C288.333 341.5 287 341.667 286 342.5C283.167 341.833 280.25 341.667 277.25 342C274.25 342.167 271.083 342.417 267.75 342.75C265.417 342.25 263.333 342 261.5 342C259.667 342 257.75 342.083 255.75 342.25C252.917 341.75 250.083 341.583 247.25 341.75C244.583 341.75 241.917 342.083 239.25 342.75C237.083 342.25 234.917 342 232.75 342C230.75 341.833 228.417 341.667 225.75 341.5C222.75 341.167 220.25 341 218.25 341C216.25 341 214.25 340.917 212.25 340.75C210.25 340.583 208.25 340.5 206.25 340.5C204.25 340.5 202.333 340.75 200.5 341.25C198.667 340.75 196.75 340.667 194.75 341C192.75 341.333 190.5 341.333 188 341C188.333 338.333 189.083 336.833 190.25 336.5C191.417 336 192.667 335.75 194 335.75C195.333 335.75 196.667 335.833 198 336C199.333 336 200.667 336 202 336C203.833 336 205.583 335.75 207.25 335.25C209.083 334.75 210.75 334.917 212.25 335.75C215.25 335.083 217.417 334.667 218.75 334.5C220.25 334.333 221.5 333.917 222.5 333.25C224.333 332.417 226.083 330.75 227.75 328.25C229.583 325.75 231.25 323.917 232.75 322.75C233.083 321.917 232.917 321.417 232.25 321.25C231.75 321.083 231.417 320.75 231.25 320.25C231.417 319.417 231.583 318.667 231.75 318C232.083 317.333 231.917 316.583 231.25 315.75C231.417 313.917 231.833 312.667 232.5 312C233.167 311.167 233.75 310.333 234.25 309.5C234.25 307.333 234.333 305.417 234.5 303.75C234.833 301.917 234.333 300.417 233 299.25C234 296.917 234.5 295.25 234.5 294.25C234.667 293.25 234.917 292.167 235.25 291C233.25 288.833 232.667 287.167 233.5 286C234.333 284.667 234.75 283.167 234.75 281.5C234.75 279.667 234.667 277.917 234.5 276.25C234.5 274.417 234.333 272.667 234 271C234.667 269.833 234.5 268.917 233.5 268.25C232 268.417 230.833 268.5 230 268.5C230.333 267.5 230.917 266.833 231.75 266.5C232.75 266 233.5 265.333 234 264.5C233.833 263.333 233.833 262.25 234 261.25C234.167 260.083 234.25 258.833 234.25 257.5C233.583 254.333 233.667 251.75 234.5 249.75C235.5 247.583 235.417 245.333 234.25 243C232.417 243 231.417 242.75 231.25 242.25C231.083 241.75 231.083 241.083 231.25 240.25C231.917 238.583 232.5 237.583 233 237.25C233.5 236.917 233.917 236.417 234.25 235.75C234.083 234.417 233.917 233.167 233.75 232C233.583 230.833 232.833 230.167 231.5 230C230.667 228.5 230.5 227.333 231 226.5C231.667 225.5 232.5 224.667 233.5 224C233.667 222.167 233.333 220.667 232.5 219.5C231.667 218.333 231.25 217 231.25 215.5C232.25 214.833 232.667 213.667 232.5 212C232.5 210.333 232.167 209 231.5 208C232.167 207.167 232.25 206.167 231.75 205C231.25 203.833 231.25 202.917 231.75 202.25C230.083 201.75 229.167 201.333 229 201C228.833 200.5 228.75 200 228.75 199.5C228.917 198 229.417 196.833 230.25 196C231.25 195.167 231.667 193.917 231.5 192.25C229.667 193.083 228.667 193.333 228.5 193C228.5 192.5 228.25 192.167 227.75 192C228.917 190.667 229.167 190.083 228.5 190.25C227.833 190.25 227.583 189.917 227.75 189.25C228.75 189.083 229.333 188.833 229.5 188.5C229.833 188 229.833 187.417 229.5 186.75C231.333 184.25 232 182.583 231.5 181.75C231 180.75 230.5 179.833 230 179C230.833 177.667 231.333 176.083 231.5 174.25C231.833 172.417 231.333 171.083 230 170.25C230.5 167.75 230.833 165.583 231 163.75C231.333 161.75 231.333 159.75 231 157.75C226.667 157.417 222.5 157.417 218.5 157.75C214.5 157.917 210.75 158.667 207.25 160C207.25 161.167 206.917 162 206.25 162.5C205.583 163 205.167 163.833 205 165C204.167 164.667 203.5 164.75 203 165.25C202.667 165.583 202.333 165.583 202 165.25C201.333 166.75 200.167 167.75 198.5 168.25C196.833 168.75 196 169.833 196 171.5C195.167 171.5 194.5 171.667 194 172C193.667 172.333 193.333 172.75 193 173.25C192.667 173.75 192.333 174.25 192 174.75C191.833 175.083 191.417 175.333 190.75 175.5C190.75 177.333 190.167 179 189 180.5C187.833 181.833 187.083 183.5 186.75 185.5C187.583 186.333 187.75 186.917 187.25 187.25C186.75 187.583 186.333 188 186 188.5C185.667 190 185.333 190.833 185 191C184.833 191 184.417 191 183.75 191C182.583 193.333 181.667 196 181 199C180.333 202 179.25 204.667 177.75 207C176.583 209.5 176.083 211.75 176.25 213.75C176.417 215.75 176.083 217.667 175.25 219.5C173.917 221.5 173.25 223.083 173.25 224.25C173.25 225.417 173.083 226.5 172.75 227.5C171.917 229.5 171.5 230.917 171.5 231.75C171.667 232.583 171.167 233.083 170 233.25C169.5 233.083 169.167 232.833 169 232.5C168.833 232 168.5 231.583 168 231.25C169.5 226.417 170.75 221.333 171.75 216C172.917 210.667 174.417 205.833 176.25 201.5C176.583 201 176.917 200.583 177.25 200.25C177.583 199.917 177.75 199.333 177.75 198.5C176.083 197.667 175.417 197.167 175.75 197C176.083 196.667 176.25 196.25 176.25 195.75C177.417 195.583 178 195.167 178 194.5C178 193.667 178.5 193.083 179.5 192.75C178.5 191.083 178.167 190.25 178.5 190.25C178.833 190.25 179.167 190.083 179.5 189.75C178.667 189.417 178 189.583 177.5 190.25C177.167 190.75 176.583 191 175.75 191C173.917 192.333 173.25 193.083 173.75 193.25C174.417 193.417 174.667 193.667 174.5 194C173.667 194.5 173 194.583 172.5 194.25C172 193.917 171.417 193.75 170.75 193.75C170.917 195.25 170.583 196.25 169.75 196.75C169.083 197.25 168.167 197.833 167 198.5C166.167 200.833 165.917 203 166.25 205C166.75 207 167 209.083 167 211.25C167 212.75 166.667 214.583 166 216.75C165.5 218.75 165.917 220.5 167.25 222C166.583 223.833 166.417 225.583 166.75 227.25C167.25 228.917 167.417 230.833 167.25 233L164.75 234.25C163.917 233.083 163.583 231.833 163.75 230.5C164.083 229.167 163.75 228.083 162.75 227.25C163.25 223.583 163.333 220.083 163 216.75C162.833 213.25 162.667 209.75 162.5 206.25C162.5 205.583 162.583 205 162.75 204.5C162.917 203.833 163 203.25 163 202.75C163.333 200.917 163.333 198.833 163 196.5C162.833 194.167 163 192 163.5 190C163.833 189.333 164 188.5 164 187.5C164 186.5 163.833 185.5 163.5 184.5C162 183.833 161 183.667 160.5 184C160.167 184.333 159.833 184.5 159.5 184.5C160.167 183.167 160.583 182.417 160.75 182.25C161.083 182.083 161.5 182 162 182C161.333 181.167 161.333 180.5 162 180C162.667 179.333 163.167 178.5 163.5 177.5C162.833 176 162.667 175.25 163 175.25C163.333 175.083 163.583 174.833 163.75 174.5C164.417 172.167 164.5 168.917 164 164.75C163.5 160.583 162.833 156.833 162 153.5C162.833 153.333 163.833 153.25 165 153.25C166.333 153.083 167.083 153.333 167.25 154C167.583 153.5 168.5 153.083 170 152.75C171.167 153.083 172.417 153.25 173.75 153.25C175.083 153.25 176.333 153.25 177.5 153.25C178.667 153.083 179.75 152.833 180.75 152.5C181.75 152.167 182.583 151.583 183.25 150.75C184.083 151.583 185.167 152.167 186.5 152.5C187.833 152.833 189.25 153 190.75 153C192.417 152.833 194 152.583 195.5 152.25C197 151.917 198.25 151.583 199.25 151.25C203.917 151.75 207.667 152 210.5 152C213.333 152 216.25 152.167 219.25 152.5C220.583 151.833 221.833 151.583 223 151.75C224.333 151.75 225.583 151.917 226.75 152.25C227.917 152.583 229.083 152.833 230.25 153C231.417 153.167 232.583 152.917 233.75 152.25C235.25 152.417 236.5 152.583 237.5 152.75C238.667 152.917 239.583 152.833 240.25 152.5C241.917 152.5 243.417 152.5 244.75 152.5C246.083 152.5 247.417 152.583 248.75 152.75C250.25 152.917 251.583 152.917 252.75 152.75C254.083 152.417 255.083 151.75 255.75 150.75C257.75 151.917 259.583 152.333 261.25 152C262.917 151.667 264.583 151.333 266.25 151C267.25 150.833 268.25 150.917 269.25 151.25C270.25 151.417 271.167 151.417 272 151.25C273.333 151.083 274.5 150.667 275.5 150C276.5 149.333 277.667 149.667 279 151C280.833 150.833 282.667 150.833 284.5 151C286.333 151.167 288 151.333 289.5 151.5C291.167 151.5 292.75 151.417 294.25 151.25C295.75 150.917 297 150.333 298 149.5C299.333 149.833 300.083 150.083 300.25 150.25C300.583 150.25 300.833 150.583 301 151.25C304.333 150.083 306.833 149.333 308.5 149C310.333 148.667 312.167 148.083 314 147.25C314.833 147.583 315.667 148 316.5 148.5C317.5 148.833 318.167 149.417 318.5 150.25C320.333 149.917 322.417 150 324.75 150.5C327.083 150.833 329.167 151.083 331 151.25C331.667 150.083 332.5 149.5 333.5 149.5C334.5 149.5 335.417 149.917 336.25 150.75C337.083 151.417 337.583 152.333 337.75 153.5C338.083 154.5 337.75 155.583 336.75 156.75C337.417 157.583 337.5 158.333 337 159C336.5 159.667 336.583 160.417 337.25 161.25C338.083 160.75 338.917 160.5 339.75 160.5C340.75 160.5 341.333 160.833 341.5 161.5C341.667 162.333 341.417 162.667 340.75 162.5C340.25 162.333 339.75 162.583 339.25 163.25C338.75 163.75 338.417 164.5 338.25 165.5C338.25 166.333 337.833 167 337 167.5C337 168.333 337.417 168.667 338.25 168.5C339.25 168.333 339.833 168.667 340 169.5C341.167 169.667 341.667 169.917 341.5 170.25C341.5 170.417 341.667 170.917 342 171.75ZM174.75 201.75C174.25 202.25 173.75 202.583 173.25 202.75C172.75 202.917 172.583 203.333 172.75 204C172.25 203.333 172.167 202.75 172.5 202.25C173 201.75 173.75 201.583 174.75 201.75ZM333.5 155C332.667 154.667 332 154.5 331.5 154.5C331.167 154.5 330.667 154.25 330 153.75C329.667 154.417 328.833 154.5 327.5 154C326.167 153.5 325.25 153.667 324.75 154.5C323.917 156.667 322.833 158.25 321.5 159.25C320.167 160.25 318.583 160.917 316.75 161.25C315.417 161.75 314.333 162.25 313.5 162.75C312.833 163.583 312.25 164.333 311.75 165C311.417 165.5 310.833 166 310 166.5C310.833 167.333 311.833 167.667 313 167.5C314.333 167.167 315.333 167.167 316 167.5C316.833 165.833 317.583 164.75 318.25 164.25C319.083 163.583 320.167 163.333 321.5 163.5C321.833 161.5 322.5 160.333 323.5 160C324.667 159.667 325.667 159.75 326.5 160.25C326.667 159.417 327.333 159 328.5 159C329.833 159 330.25 158.583 329.75 157.75C331.083 157.25 332.083 156.917 332.75 156.75C333.417 156.583 333.667 156 333.5 155ZM326.25 162.5C325.75 162.833 325.167 162.917 324.5 162.75C324 162.417 323.417 162.417 322.75 162.75C324.083 163.75 325 164.167 325.5 164C326.167 163.667 326.417 163.167 326.25 162.5ZM332.25 176.25C331.917 175.417 331.583 175 331.25 175C330.917 174.833 330.5 174.833 330 175C329.667 175 329.167 175.083 328.5 175.25C328 175.417 327.417 175.417 326.75 175.25C327.25 176.083 328.083 176.417 329.25 176.25C330.417 176.083 331.417 176.083 332.25 176.25ZM319 155.5C317.5 154.167 316.167 153.75 315 154.25C314 154.583 313 155.083 312 155.75C311.167 156.25 310.25 156.833 309.25 157.5C308.417 158.167 307.5 158.5 306.5 158.5C305.833 159.667 304.833 160.5 303.5 161C304.333 162.167 305 162.667 305.5 162.5C306 162.167 306.583 162.167 307.25 162.5C308.917 160.5 310.25 159.583 311.25 159.75C312.583 158.583 313.75 157.583 314.75 156.75C315.75 155.917 317.167 155.5 319 155.5ZM322 165.25C321.5 164.75 321 164.75 320.5 165.25C320 165.75 319.5 165.833 319 165.5C317.5 166.833 316.667 167.667 316.5 168C316.5 168.333 316.333 168.667 316 169C315.5 168.667 315 168.583 314.5 168.75C314.167 168.75 313.75 168.833 313.25 169C313.25 169.833 313.083 170.333 312.75 170.5C312.417 170.667 312.333 171.167 312.5 172C315 171.333 316.333 170.333 316.5 169C317.333 169 317.917 168.583 318.25 167.75C318.75 166.917 319.417 167 320.25 168C320.083 167.167 320.25 166.667 320.75 166.5C321.417 166.333 321.833 165.917 322 165.25ZM334.75 182C334.917 180.833 334.583 180.083 333.75 179.75C333.083 179.417 332.333 179.083 331.5 178.75C331.333 180.417 331 181.25 330.5 181.25C330 181.083 329.583 181.167 329.25 181.5C328.083 182.333 326.917 182.917 325.75 183.25C324.583 183.417 323.833 182.917 323.5 181.75C324 181.75 324.5 181.75 325 181.75C325.5 181.583 325.917 181.333 326.25 181C328.083 180.333 329 180.167 329 180.5C329 180.833 329.25 180.917 329.75 180.75C330.083 179.75 329.833 179.417 329 179.75C328.167 179.917 327.667 179.667 327.5 179C326.667 178.833 325.917 178.75 325.25 178.75C324.75 178.583 324.167 178.667 323.5 179C323.833 179.667 323.667 180.167 323 180.5C322.333 180.833 322 181.417 322 182.25C323 183.75 323.833 184.417 324.5 184.25C325.333 183.917 326.083 183.917 326.75 184.25C327.083 186.25 327.333 187.25 327.5 187.25C327.833 187.083 328.083 186.833 328.25 186.5C328.417 186.167 328.583 185.75 328.75 185.25C329.083 184.75 329.417 184.5 329.75 184.5C330.417 184.5 331 184.583 331.5 184.75C332 184.75 332.417 184.75 332.75 184.75C333.25 183.417 333.583 182.667 333.75 182.5C334.083 182.333 334.417 182.167 334.75 182ZM307.25 154.5C305.083 154.667 303.083 154.833 301.25 155C299.417 155 298.25 156 297.75 158C298.583 158.167 299.083 158.5 299.25 159C299.583 159.5 300.167 159.917 301 160.25C301.833 158.583 302.917 157.667 304.25 157.5C305.75 157.167 306.75 156.167 307.25 154.5ZM332 186.75C330 187.583 328.583 188.417 327.75 189.25C326.917 190.083 325.917 190.917 324.75 191.75C325.083 193.583 325.667 194.667 326.5 195C329.167 193.333 331 190.583 332 186.75ZM334.75 190.75C334.417 192.25 333.167 193.417 331 194.25C331 195.917 330.583 196.917 329.75 197.25C329.083 197.583 328.333 198 327.5 198.5C328.167 199.167 328.417 199.833 328.25 200.5C328.083 201 328 201.5 328 202C329 201.833 329.75 201.667 330.25 201.5C330.917 201.167 331.667 201.167 332.5 201.5C334.667 199.333 335.667 197.25 335.5 195.25C335.5 193.25 335.25 191.75 334.75 190.75ZM333.75 204.5C331.583 205 330 206 329 207.5C328 209 328.083 210.917 329.25 213.25C330.417 214.083 331.5 213.833 332.5 212.5C332 211.333 332.25 210.083 333.25 208.75C334.417 207.25 334.583 205.833 333.75 204.5ZM334.25 216.75C332.917 217.083 332.417 217.583 332.75 218.25C333.083 218.75 333.083 219.167 332.75 219.5C331.583 219.833 331.167 220.667 331.5 222C332 223.333 332.667 224.333 333.5 225C334 224 334.333 222.75 334.5 221.25C334.667 219.583 334.583 218.083 334.25 216.75ZM257.75 159C256.417 158.667 255.167 158.75 254 159.25C252.833 159.583 251.833 159.833 251 160C251.333 159 251.917 158.5 252.75 158.5C253.583 158.5 254.417 158.333 255.25 158L251.5 155.75C249.667 158.083 247.333 159.917 244.5 161.25C241.667 162.417 239.333 164.083 237.5 166.25C237.667 167.25 237.417 168.083 236.75 168.75C236.083 169.25 235.5 169.917 235 170.75C234.667 171.417 234.583 172.083 234.75 172.75C235.083 173.417 235.75 173.917 236.75 174.25C238.75 172.417 240.167 171 241 170C241.833 169 242.917 168.167 244.25 167.5C244.583 168.667 244.833 168.75 245 167.75C245.167 166.583 245.917 166.167 247.25 166.5C248.083 165.5 248.667 164.917 249 164.75C249.5 164.417 249.917 164.083 250.25 163.75C250.583 163.417 250.917 163.167 251.25 163C251.583 162.833 252 162.833 252.5 163C252.833 162 253.5 161.417 254.5 161.25C255.667 161.083 256.333 160.333 256.5 159H257.75ZM246.75 155.75C244.583 156.25 242.583 156.333 240.75 156C239.083 155.667 237.25 155.833 235.25 156.5C234.417 157.5 234.083 158.667 234.25 160C234.583 161.167 234.667 162.583 234.5 164.25C237 163.75 239.25 162.75 241.25 161.25C243.417 159.583 245.25 157.75 246.75 155.75ZM268.25 156C267.417 155.5 266.667 155.333 266 155.5C265.333 155.5 264.5 155.417 263.5 155.25C262.833 156.417 262.167 157.583 261.5 158.75C261 159.917 259.833 160.583 258 160.75C257.5 161.583 256.917 162.417 256.25 163.25C255.583 164.083 254.333 164.333 252.5 164C252 165.333 251.333 166 250.5 166C249.667 165.833 248.833 165.917 248 166.25C246.333 167.917 244.667 169.583 243 171.25C241.5 172.917 239.5 174.25 237 175.25C236.833 176.083 237 176.583 237.5 176.75C238 176.75 238.25 177.167 238.25 178C237.75 178.667 237.167 179.25 236.5 179.75C236 180.083 235.583 180.667 235.25 181.5C236.75 180.833 238.167 179.833 239.5 178.5C240.667 179.833 240.917 180.75 240.25 181.25C239.583 181.583 239.083 182.25 238.75 183.25C237.583 182.917 236.833 183 236.5 183.5C236.167 183.833 235.667 184.083 235 184.25C236 185.417 236.417 186.083 236.25 186.25C236.083 186.25 236.167 186.417 236.5 186.75C237 186.75 237.5 186.667 238 186.5C238.5 186.333 239 186.417 239.5 186.75C239 187.083 238.417 187.5 237.75 188C237.083 188.5 236.5 189.083 236 189.75C235.667 190.417 235.5 191.083 235.5 191.75C235.5 192.417 235.917 193 236.75 193.5C237.083 193.167 237.333 192.833 237.5 192.5C237.667 192 238.083 191.583 238.75 191.25C240.083 190.417 240.833 189.917 241 189.75C241.167 189.583 241.417 189.5 241.75 189.5C243.083 191.167 243.833 191.833 244 191.5C245 190.5 246 190 247 190C247.167 189.167 246.917 188.75 246.25 188.75C245.583 188.583 245.083 188.333 244.75 188C244.417 189.667 243.667 190.583 242.5 190.75C241.667 189.917 241.417 189.25 241.75 188.75C242.25 188.083 243.083 187.833 244.25 188C243.583 187.667 243.333 187.083 243.5 186.25C243.667 185.25 244.333 184.833 245.5 185C246 185.833 246.333 186.083 246.5 185.75C246.833 185.417 247.417 185.417 248.25 185.75C249.583 185.083 250.417 184.333 250.75 183.5C252.583 182 253.417 180.5 253.25 179C253.75 179 254.167 178.833 254.5 178.5C254.833 178.167 255.333 178.167 256 178.5C254 178.5 252.917 178.333 252.75 178C252.75 177.667 252.667 177.333 252.5 177C253.5 176.667 254.25 176.167 254.75 175.5C255.417 174.833 256.417 174.417 257.75 174.25C258.75 173.583 259.25 173.167 259.25 173C259.417 172.667 259.667 172.333 260 172C261.5 170.5 262.917 169.583 264.25 169.25C265.583 168.75 266.833 168.167 268 167.5C268.333 165.5 268.333 163.583 268 161.75C267.833 159.75 267.917 157.833 268.25 156ZM256.75 182.5C255.75 182.167 255 182.083 254.5 182.25C254.167 182.417 253.833 182.667 253.5 183C253.833 183.833 254.417 184.25 255.25 184.25C256.083 184.083 256.583 183.5 256.75 182.5ZM270.75 207.75C270.25 206.75 270.083 205.917 270.25 205.25C270.583 204.583 270.75 203.583 270.75 202.25C268.75 202.917 267.75 203.083 267.75 202.75C267.917 202.417 267.833 202.25 267.5 202.25C265.833 201.25 264.833 200.917 264.5 201.25C264.167 201.417 263.833 201.333 263.5 201C265 200.667 265.917 200.667 266.25 201C266.583 201.333 267 201.583 267.5 201.75C267.5 200.75 267.667 200.083 268 199.75C268.333 199.25 268.333 198.583 268 197.75C268.667 197.25 269.167 197 269.5 197C270 196.833 270.417 196.667 270.75 196.5C270.417 195.667 270.417 194.583 270.75 193.25C271.083 191.75 270.583 191 269.25 191C267.417 192.667 266.417 193.25 266.25 192.75C266.083 192.25 265.75 192.167 265.25 192.5C265.417 193.833 265.167 194.75 264.5 195.25C263.833 195.75 263.167 195.917 262.5 195.75C261.667 194.417 261.5 193.75 262 193.75C262.5 193.75 262.833 193.417 263 192.75C264.667 192.083 265.833 191.75 266.5 191.75C267.167 191.583 267.75 191.25 268.25 190.75C267.083 190.583 266.083 190.583 265.25 190.75C264.417 190.75 263.417 190.917 262.25 191.25C261.917 189.75 261.833 188.833 262 188.5C262.167 188.167 262.583 188.167 263.25 188.5C263.917 190 264.417 190.583 264.75 190.25C265.25 189.75 265.75 189.667 266.25 190C266.917 188.5 267.083 187.667 266.75 187.5C266.417 187.333 266.25 187 266.25 186.5C267.083 186.167 267.75 186 268.25 186C268.917 186 269.75 185.917 270.75 185.75C270.917 184.417 270.417 183.333 269.25 182.5C268.25 183.833 267.25 184.333 266.25 184C265.917 184.667 265.75 185.167 265.75 185.5C265.75 185.667 265.5 186 265 186.5C264.667 185.333 265 184.333 266 183.5C267 182.667 267.583 181.75 267.75 180.75C267.917 180.083 267.667 179.667 267 179.5C266.333 179.333 265.583 179.5 264.75 180C264.583 179.167 264.75 178.75 265.25 178.75C265.75 178.583 266.25 178.5 266.75 178.5C267.25 178.5 267.75 178.5 268.25 178.5C268.75 178.5 269.083 178.333 269.25 178C268.25 177.667 268 177 268.5 176C269 175 268.917 174.167 268.25 173.5C266.917 173.833 265.917 174.5 265.25 175.5C264.583 176.333 263.417 176.667 261.75 176.5C261.75 177.333 261.5 178 261 178.5C260.5 178.833 259.917 179.167 259.25 179.5C258.75 179.667 258.25 179.917 257.75 180.25C257.25 180.417 256.917 180.833 256.75 181.5C258.25 181.667 259.167 181.917 259.5 182.25C260 182.583 260.083 182.917 259.75 183.25C258.083 184.083 257.167 184.583 257 184.75C257 184.75 256.833 184.583 256.5 184.25C255.167 184.75 254.417 185.167 254.25 185.5C254.083 185.667 253.833 185.833 253.5 186C252 185.333 251.167 185.25 251 185.75C250.833 186.25 250.5 186.583 250 186.75C248.667 186.75 247.833 186.75 247.5 186.75C247.167 186.75 246.917 186.833 246.75 187C246.917 188 247.333 188.5 248 188.5C248.833 188.5 249.417 188.167 249.75 187.5C249.917 188.5 249.833 189.167 249.5 189.5C249.333 189.667 249 189.833 248.5 190C248.167 190.167 247.75 190.333 247.25 190.5C246.917 190.5 246.667 190.75 246.5 191.25C245.333 192.083 244.5 192.75 244 193.25C243.667 193.75 242.917 193.917 241.75 193.75C239.583 195.417 237.917 196.75 236.75 197.75C235.75 198.583 235.25 200.083 235.25 202.25C236.583 201.917 238 201.417 239.5 200.75C241.167 200.083 242.417 200.167 243.25 201C244.083 199.5 244.833 198.583 245.5 198.25L249 196.75C249.333 195.917 249.5 195.417 249.5 195.25C249.667 194.917 249.75 194.5 249.75 194C251.917 193.5 253.333 193 254 192.5C254.667 191.833 255 191.333 255 191C256 190.5 256.667 190 257 189.5C257.5 188.833 258.333 188.333 259.5 188C260 188 260.333 188.333 260.5 189C260.667 189.5 260.833 190.167 261 191C260.5 191.167 259.917 191.25 259.25 191.25C258.583 191.25 258.167 191.583 258 192.25C257.167 194.083 256.417 195.083 255.75 195.25C255.083 195.417 254.667 195.833 254.5 196.5C254.167 195.667 253.5 195.5 252.5 196C251.5 196.333 250.833 196.75 250.5 197.25C249.333 198.583 248.583 199.333 248.25 199.5C247.917 199.5 247.667 199.667 247.5 200C248 200.167 248.417 200 248.75 199.5C249.25 198.833 249.75 198.833 250.25 199.5C247.75 201.167 245.333 202.833 243 204.5C240.667 206 238.167 207.5 235.5 209C235.5 210.5 235.667 211.583 236 212.25C236.333 212.75 236.75 213.333 237.25 214C237.583 213 238 212.5 238.5 212.5C239 212.5 239.417 212.583 239.75 212.75C240.083 212.083 240.5 211.333 241 210.5C241.667 209.667 242.333 208.833 243 208C244.833 207 245.75 206.667 245.75 207C245.917 207.167 246.167 207.25 246.5 207.25C247.333 206.25 247.917 205.75 248.25 205.75C248.583 205.583 249 205.75 249.5 206.25C248.667 204.917 248.083 204.083 247.75 203.75C248.417 203.583 248.917 203.333 249.25 203C249.583 202.667 249.917 202.417 250.25 202.25C250.75 201.583 251 201 251 200.5C251.167 200 251.583 199.667 252.25 199.5C253.083 200.167 254.167 200.75 255.5 201.25C255.5 199.917 255.75 199.25 256.25 199.25C256.917 199.083 257.417 199.167 257.75 199.5C257.25 198.667 257.167 198.083 257.5 197.75C258 197.25 258.167 196.583 258 195.75C258.5 197.083 258.833 198.25 259 199.25C259.167 200.083 259.583 200.167 260.25 199.5C260.25 202.333 259.5 204.167 258 205C256.5 205.667 255.167 206.167 254 206.5C254.167 206.833 253.917 207.25 253.25 207.75C252.583 208.083 251.833 208.083 251 207.75C250.667 208.75 250.25 209.583 249.75 210.25C249.25 210.917 248.417 211.25 247.25 211.25C246.917 212.083 246.333 212.667 245.5 213C244.833 213.167 244.25 213.583 243.75 214.25C242.583 214.75 241.5 215.333 240.5 216C239.667 216.667 238.833 217.417 238 218.25C237.333 218.917 236.833 219.667 236.5 220.5C236.333 221.333 236.75 222.25 237.75 223.25C237.917 222.083 238.083 221.333 238.25 221C238.583 220.667 239 220.333 239.5 220C241.167 221.5 242.333 221.75 243 220.75C243.333 219.917 243.667 219.333 244 219C244.333 218.667 244.917 218.833 245.75 219.5C248.25 219.5 249.917 219.167 250.75 218.5C251.583 217.667 251.667 216.917 251 216.25C250.5 215.083 250.167 214.333 250 214C249.833 213.667 249.833 213.333 250 213C251.333 212.333 252.083 212.083 252.25 212.25C252.583 212.25 253.25 212.333 254.25 212.5C255.583 212.333 256.833 212.417 258 212.75C259.167 212.917 260.167 212.667 261 212C261.333 210 262.25 209 263.75 209C265.25 208.833 266.75 208.333 268.25 207.5L270.75 207.75ZM259.5 202.75C257.833 202.75 256.917 202.75 256.75 202.75C255.25 203.583 254.417 203.917 254.25 203.75C254.083 203.417 253.75 203.333 253.25 203.5C254.25 204.333 255.167 204.667 256 204.5C257 204.167 258.167 203.583 259.5 202.75ZM241.25 193.75C240.417 194.25 239.583 194.333 238.75 194C238.083 193.667 237.667 193.917 237.5 194.75C239.333 194.75 240.583 194.417 241.25 193.75ZM269.75 217.75C270.083 216.917 270.083 216.167 269.75 215.5C269.417 214.667 269.417 213.833 269.75 213C268.917 212.833 268.333 212.75 268 212.75C267.833 212.583 267.417 212.667 266.75 213C266.25 214.167 265.75 215.083 265.25 215.75C264.917 216.25 264.333 216.667 263.5 217C262 217.333 261.167 217.583 261 217.75C260.833 217.75 260.583 217.833 260.25 218C259.25 220 258.25 221.25 257.25 221.75C256.417 222.083 255.833 222.833 255.5 224C256.5 223.667 257.333 223.333 258 223C258.833 222.5 259.75 222.5 260.75 223C260.75 221.833 261.167 221.417 262 221.75C263 221.917 263.583 221.5 263.75 220.5C264.417 220 265.167 219.333 266 218.5C267 217.667 268.25 217.417 269.75 217.75ZM260 214.5C259.167 214.833 258.583 214.833 258.25 214.5C258.083 214.167 257.75 213.917 257.25 213.75C257.25 214.083 257.25 214.583 257.25 215.25C257.25 215.75 257 216.167 256.5 216.5C255.167 217 254.25 217.25 253.75 217.25C253.417 217.25 253.25 217.417 253.25 217.75C254.083 217.917 254.917 218 255.75 218C256.75 217.833 257.417 218.167 257.75 219C257.583 216.667 257.667 215.583 258 215.75C258.333 215.75 258.667 215.75 259 215.75L260 214.5ZM249.25 208.5C248.583 208 247.917 207.833 247.25 208C246.583 208 246.25 208.333 246.25 209C246.917 209 247.417 209.083 247.75 209.25C248.25 209.25 248.75 209 249.25 208.5ZM239.75 203.75C239.25 204.417 238.583 204.5 237.75 204C237.083 203.5 236.583 203.5 236.25 204C237.75 205 238.583 205.417 238.75 205.25C238.917 205.083 239.167 205 239.5 205L239.75 203.75ZM256.75 224.75C255.083 225.083 253.833 225.25 253 225.25C252.333 225.25 251.917 225.5 251.75 226C253.583 226.5 254.5 226.583 254.5 226.25C254.667 225.75 254.917 225.417 255.25 225.25L256.75 224.75ZM258 227C256.5 227.667 255.667 228 255.5 228C255.333 227.833 255.083 227.75 254.75 227.75C254.75 229.417 255.167 229.917 256 229.25C257 228.583 257.667 227.833 258 227ZM255 221.5C255.167 219.833 255.083 218.917 254.75 218.75C254.583 218.583 254.25 218.583 253.75 218.75C253.25 218.75 252.75 218.917 252.25 219.25C251.75 219.417 251.5 219.667 251.5 220C250.667 219.667 249.917 219.917 249.25 220.75C248.75 221.417 248 221.833 247 222C245.833 223.5 245 224.25 244.5 224.25C244.167 224.25 243.917 224.417 243.75 224.75C242.417 226.25 240.917 227.5 239.25 228.5C237.75 229.333 237.167 230.833 237.5 233C238.333 233 238.833 232.833 239 232.5C239.333 232.167 239.667 231.75 240 231.25C240.667 232.083 241 232.167 241 231.5C241.167 230.667 241.75 230.333 242.75 230.5C243.75 229.667 244.25 229.083 244.25 228.75C244.25 228.417 244.417 228.083 244.75 227.75C245.75 227.083 246.333 226.583 246.5 226.25C246.833 225.917 247.167 225.667 247.5 225.5C248 226 248.333 226.25 248.5 226.25C248.833 226.25 249.417 226.5 250.25 227C251.083 225.667 251.5 224.833 251.5 224.5C251.5 224.167 251.75 224.083 252.25 224.25C252.417 224.083 252.083 224.083 251.25 224.25C250.583 224.25 250 224.417 249.5 224.75C249.5 223.417 249.917 222.583 250.75 222.25C251.75 221.917 252.583 221.417 253.25 220.75L255 221.5ZM187.25 167.5C186.25 166.333 185.583 165.833 185.25 166C184.917 166.167 184.417 166.25 183.75 166.25C184.917 167.417 185.583 167.75 185.75 167.25C186.083 166.583 186.583 166.667 187.25 167.5ZM187.5 169C187.167 168.5 186.5 168.25 185.5 168.25C184.5 168.083 184 168.417 184 169.25C184.833 169.083 186 169 187.5 169ZM191.5 159.25C189.667 158.583 188.583 158.083 188.25 157.75C186.75 158.25 185.5 158.917 184.5 159.75C183.667 160.583 182.583 161.083 181.25 161.25C181.583 162.083 181.25 162.667 180.25 163C179.417 163.167 178.833 163.167 178.5 163C178.167 164 177.833 164.583 177.5 164.75C177.333 164.917 176.833 164.917 176 164.75C175.667 165.417 175.25 166.083 174.75 166.75C174.417 167.25 173.75 167.667 172.75 168C171.75 168 170.833 168.083 170 168.25C169.667 167.417 169.167 167.167 168.5 167.5C168 167.833 167.75 167.417 167.75 166.25C168.583 166.417 169.25 166.417 169.75 166.25C170.417 166.083 171.083 165.917 171.75 165.75C171.083 164.417 171.25 163.417 172.25 162.75C173.25 162.083 174.25 161.333 175.25 160.5C174.75 160.167 174.25 160.167 173.75 160.5C173.25 160.833 172.833 160.833 172.5 160.5C172.5 159.667 172.833 159.25 173.5 159.25C174.167 159.083 174.5 158.583 174.5 157.75C173.333 157.583 172 157.667 170.5 158C169 158.167 167.833 158.417 167 158.75C166.833 159.583 166.833 160.25 167 160.75C167.333 161.083 167.667 161.583 168 162.25C167.5 162.75 167.083 163.5 166.75 164.5C166.583 165.5 166.5 166.583 166.5 167.75C166.5 168.75 166.667 169.583 167 170.25C167.5 170.917 168.25 171.083 169.25 170.75C168.417 172.083 168.167 172.833 168.5 173C169 173 169.333 173.167 169.5 173.5C168.5 174 168 174.667 168 175.5C168 176.167 168.167 176.5 168.5 176.5C168.833 175.667 169.25 175.5 169.75 176C170.417 176.333 171.083 176.167 171.75 175.5C173.417 174.667 174.833 174.333 176 174.5C177.333 174.667 178.25 174.583 178.75 174.25C178.417 174.25 178 174.25 177.5 174.25C177.167 174.083 176.667 174 176 174C177.5 171.833 177.833 170.667 177 170.5C177.833 169.5 178.417 168.75 178.75 168.25C179.083 167.75 179.417 167.333 179.75 167C180.083 166.5 180.417 166.083 180.75 165.75C181.083 165.417 181.25 165.083 181.25 164.75C183.083 164.583 184.333 164.333 185 164C185.667 163.667 186.5 163.667 187.5 164C187.667 163.5 187.583 163 187.25 162.5C186.917 162 187 161.583 187.5 161.25C189 160.083 189.917 159.5 190.25 159.5C190.75 159.5 191.167 159.417 191.5 159.25ZM253 233.5C252.5 233 252.417 232.583 252.75 232.25C253.25 231.917 253.25 231.333 252.75 230.5C251.75 230.667 250.917 231.083 250.25 231.75C249.75 232.417 249.083 232.917 248.25 233.25C249.083 231.583 249.333 230.75 249 230.75C248.667 230.583 248.75 230.333 249.25 230C250.417 230.333 251.167 230.333 251.5 230C251.833 229.5 252.25 229.167 252.75 229C252.25 228.667 251.667 228.583 251 228.75C250.333 228.75 249.667 228.667 249 228.5C247.333 229.667 246.25 230.667 245.75 231.5C245.417 232.167 245 232.833 244.5 233.5C245.833 234 246.917 233.833 247.75 233C247.75 234.167 247.5 234.833 247 235C246.5 235 245.917 235.083 245.25 235.25C244.417 236.583 243.333 237.75 242 238.75C240.833 239.583 239.583 240.417 238.25 241.25C237.917 242.583 237.833 243.917 238 245.25C238.167 246.417 238.083 247.5 237.75 248.5C239.083 247.167 240.333 246.083 241.5 245.25C242.833 244.25 243.917 242.833 244.75 241C246.083 240 246.75 239.5 246.75 239.5C246.917 239.333 246.917 239 246.75 238.5C247.417 238.333 248 238 248.5 237.5C249 237 249.667 236.75 250.5 236.75C251.167 235.583 251.583 234.833 251.75 234.5C252.083 234.167 252.5 233.833 253 233.5ZM269.75 223C268.917 223 268.333 223.25 268 223.75C267.667 224.25 267 224.5 266 224.5C266 225.833 265.25 226.583 263.75 226.75C263.25 227.917 262.5 228.917 261.5 229.75C260.667 230.583 259.75 231.417 258.75 232.25C257.75 232.917 256.833 233.75 256 234.75C255.167 235.583 254.5 236.667 254 238C251.333 240.167 248.917 242.167 246.75 244C244.583 245.667 242.583 247.667 240.75 250C240.083 251.833 239.833 252.75 240 252.75C240.333 252.75 240.5 252.917 240.5 253.25C239.333 253.917 238.417 254.917 237.75 256.25C237.083 257.417 236.917 259.083 237.25 261.25C238.75 261.583 239.5 262 239.5 262.5C239.667 262.833 239.5 263.167 239 263.5C238 265.167 237.417 266.833 237.25 268.5C237.083 270 237.083 271.583 237.25 273.25C238.583 273.417 239.583 273.667 240.25 274C240.917 274.333 241.667 274.667 242.5 275C242.333 275.667 241.917 276 241.25 276C240.583 276 240.083 276.167 239.75 276.5C239.583 277 239.333 277.5 239 278C238.667 278.5 238.417 279 238.25 279.5C238.083 280 238 280.5 238 281C238.167 281.333 238.667 281.667 239.5 282C239.167 280.667 239.333 280 240 280C240.833 279.833 241.583 279.583 242.25 279.25C242.917 278.083 243.5 277.083 244 276.25C244.667 275.417 245.583 275.167 246.75 275.5C246.917 273.667 247.083 272.667 247.25 272.5C247.583 272.333 247.667 272 247.5 271.5C248.667 269.833 249.5 269.083 250 269.25C250.667 269.25 251.167 268.833 251.5 268C251.5 267.5 252 266.917 253 266.25C254 265.583 255.167 265.417 256.5 265.75C255.667 264.083 255.5 263 256 262.5C256.5 262 257 261.583 257.5 261.25C258.833 261.583 259.667 261.833 260 262C260.333 262 260.583 261.833 260.75 261.5C260.583 261 260.083 260.833 259.25 261C258.417 261.167 257.833 261.083 257.5 260.75C258.167 259.917 258.833 259.417 259.5 259.25C260.333 259.083 261.167 258.75 262 258.25C262.833 258.417 263.417 258.333 263.75 258C264.083 257.667 264.5 257.333 265 257C266 255.833 266.583 255 266.75 254.5C267.083 254 267.667 253.75 268.5 253.75C268.5 252.417 268.5 251.167 268.5 250C268.667 248.667 268.333 247.833 267.5 247.5C268.333 246 268.917 244.583 269.25 243.25C269.75 241.75 269.833 240 269.5 238C267.833 238.833 266.333 239.833 265 241C263.833 242 262.583 243 261.25 244C261.417 243.5 261.333 243.083 261 242.75C260.833 242.417 260.667 241.917 260.5 241.25C261.5 241.083 262 240.667 262 240C262.167 239.333 262.667 238.667 263.5 238C264.5 236.333 264.833 235.417 264.5 235.25C264.333 235.083 264.333 234.833 264.5 234.5C265.5 234 266.083 233.917 266.25 234.25C266.417 234.417 266.75 234.5 267.25 234.5C267.75 232.667 268.5 230.917 269.5 229.25C270.667 227.417 270.75 225.333 269.75 223ZM267.75 260.5C265.917 261.333 264.333 262.333 263 263.5C261.833 264.667 260.667 265.917 259.5 267.25C260 267.583 260.5 267.75 261 267.75C261.5 267.583 262 267.417 262.5 267.25C263 266.917 263.5 266.667 264 266.5C264.5 266.333 265.083 266.333 265.75 266.5C265.917 265.833 266.083 265.333 266.25 265C266.583 264.5 266.583 263.917 266.25 263.25C266.75 262.917 267.167 262.583 267.5 262.25C267.833 261.917 267.917 261.333 267.75 260.5ZM187.25 176C186.583 176 185.917 176.083 185.25 176.25C184.75 176.25 184.5 176.5 184.5 177C182.833 178.833 181.833 180.083 181.5 180.75C181.167 181.25 180.75 181.75 180.25 182.25C179.083 182.083 178.333 182.333 178 183C177.667 183.5 177 183.667 176 183.5C174.833 185.5 173.5 187.25 172 188.75C172.167 189.417 172 190.083 171.5 190.75C171.167 191.417 170.583 191.583 169.75 191.25C170.083 192.083 170.5 192.417 171 192.25C171.667 191.917 172.167 192.083 172.5 192.75C172.667 191.75 173.083 190.917 173.75 190.25C174.417 189.583 175.333 189.583 176.5 190.25C177.167 189.083 178.25 188.583 179.75 188.75C182.083 186.417 183.667 184.25 184.5 182.25C185.5 180.25 186.417 178.167 187.25 176ZM257.75 270.5C256.417 269.833 255.417 269.75 254.75 270.25C254.25 270.583 253.5 270.917 252.5 271.25C254 271.75 255.167 272 256 272C256.833 271.833 257.417 271.333 257.75 270.5ZM172.5 186C171.5 185 170.583 184.833 169.75 185.5C168.917 186 168.083 186.417 167.25 186.75C167.75 187.083 167.75 187.583 167.25 188.25C166.917 188.75 167 189.167 167.5 189.5C168.333 189 169 188.333 169.5 187.5C170.167 186.667 171.167 186.167 172.5 186ZM258 272.25L256 274.25C253 275.75 251 277.25 250 278.75C249.167 280.083 247.917 280.75 246.25 280.75C245.25 282.083 244 283.5 242.5 285C241 286.333 239.583 287.75 238.25 289.25C238.75 290.25 238.75 291.167 238.25 292C239.75 290.5 240.917 289.417 241.75 288.75C242.75 287.917 243.917 287.333 245.25 287C247.583 284.833 249.167 283 250 281.5C250.833 280 252 279.25 253.5 279.25C253.333 278.417 253.417 277.75 253.75 277.25C254.083 276.583 254.5 276.083 255 275.75C255.667 275.25 256.25 274.75 256.75 274.25C257.417 273.75 257.833 273.083 258 272.25ZM268 279.75C267.167 278.917 266.417 278.75 265.75 279.25C265.083 279.75 264.25 280.167 263.25 280.5C263.25 281.167 263 281.75 262.5 282.25C262 282.583 261.583 282.667 261.25 282.5C261.25 281.333 260.917 280.917 260.25 281.25C259.75 281.417 259.167 281.5 258.5 281.5C259.833 282.5 260.5 283.25 260.5 283.75C260.5 284.25 260.25 284.5 259.75 284.5C259.25 284.167 258.75 283.833 258.25 283.5C257.917 283 257.5 283 257 283.5C257 282 257.25 281.25 257.75 281.25C258.25 281.25 258.833 281.167 259.5 281C260 279.667 261.083 278.833 262.75 278.5C264.583 278 266.167 277.833 267.5 278C266.833 276.833 266.583 276.083 266.75 275.75C266.917 275.417 267.25 275.167 267.75 275C267.917 274.167 267.833 273.5 267.5 273C267.333 272.5 267.417 272 267.75 271.5C266.583 271.167 265.5 271.083 264.5 271.25C263.667 271.417 263.083 271.917 262.75 272.75C260.917 273.75 260.083 274.417 260.25 274.75C260.583 275.083 260.75 275.5 260.75 276C259.583 276.333 258.917 276.667 258.75 277C258.75 277.333 258.583 277.667 258.25 278C257.417 277.5 256.833 277.667 256.5 278.5C256.333 279.167 255.833 279.417 255 279.25C254.667 281.083 254.25 282 253.75 282C253.417 281.833 253.083 281.917 252.75 282.25C252.417 283.75 251.917 284.583 251.25 284.75C250.75 284.917 250.5 285.417 250.5 286.25C251.333 285.75 252.083 285.583 252.75 285.75C253.583 285.917 254.417 286.167 255.25 286.5C255.583 285.667 256.083 285.083 256.75 284.75C257.583 284.25 258.167 284.417 258.5 285.25C257.333 285.583 256.333 286.167 255.5 287C254.833 287.833 253.75 288.333 252.25 288.5C251.75 289.833 250.833 290.583 249.5 290.75C248.333 290.917 247.5 291.75 247 293.25C246 294.583 244.917 295.417 243.75 295.75C242.75 295.917 242 296.417 241.5 297.25C240.167 298.25 239.25 299.083 238.75 299.75C238.25 300.417 237.917 301.25 237.75 302.25C237.75 303.083 237.75 304.083 237.75 305.25C237.917 306.25 237.833 307.25 237.5 308.25C238.833 307.25 239.75 306.5 240.25 306C240.917 305.333 241.5 304.75 242 304.25C242.667 303.583 243.333 303.083 244 302.75C244.667 302.417 245.5 302.333 246.5 302.5C246.5 302.167 246.5 301.75 246.5 301.25C246.667 300.583 246.917 300.083 247.25 299.75C249.25 299.083 250.333 298.917 250.5 299.25C250.667 299.583 251 299.917 251.5 300.25C251.833 299.417 251.583 298.917 250.75 298.75C250.083 298.417 249.583 298.083 249.25 297.75C249.75 297.583 250.083 297.333 250.25 297C250.583 296.5 251.167 296.25 252 296.25C252.5 295.083 252.833 294.417 253 294.25C253.333 293.917 253.75 293.833 254.25 294C254.25 292.667 254.833 292 256 292C257.167 291.833 257.917 291.417 258.25 290.75C260.083 290.083 261.333 289.333 262 288.5C262.833 287.5 263.917 286.833 265.25 286.5C265.25 284.5 265.583 283.167 266.25 282.5C267.083 281.833 267.667 280.917 268 279.75ZM269.25 327.5C268.417 326.667 268.083 325.583 268.25 324.25C268.583 322.75 268.333 321.417 267.5 320.25C267.833 319.083 268.083 317.833 268.25 316.5C268.583 315 268.333 313.75 267.5 312.75C265.833 314.417 264.417 315.083 263.25 314.75C263.083 315.25 262.917 315.75 262.75 316.25C262.583 316.75 262.417 317.25 262.25 317.75C263.75 317.417 264.833 317.583 265.5 318.25C266.333 318.75 266.75 319.417 266.75 320.25C266.75 320.917 266.417 321.667 265.75 322.5C265.25 323.167 264.417 323.5 263.25 323.5C263.25 324.333 263.167 324.917 263 325.25C262.833 325.583 262.667 325.917 262.5 326.25C263.333 326.917 264.083 327.25 264.75 327.25C265.583 327.083 266.333 327.417 267 328.25L269.25 327.5ZM247.25 303.75C246.083 304.25 245.25 304.5 244.75 304.5C244.25 304.333 244.083 304.5 244.25 305C246.083 304.833 247 304.667 247 304.5C247 304.167 247.083 303.917 247.25 303.75ZM273.25 337.25C273.917 336.417 274.083 335.583 273.75 334.75C273.583 333.75 272.833 333.333 271.5 333.5C271.667 334.333 271.583 334.917 271.25 335.25C271.083 335.417 271 335.833 271 336.5L273.25 337.25ZM268.5 301.25C268.167 300.917 267.833 300.583 267.5 300.25C267.333 299.75 266.917 299.5 266.25 299.5C265.917 300.333 265.333 300.75 264.5 300.75C263.667 300.75 263.083 300.917 262.75 301.25C262.25 299.75 262.667 298.667 264 298C265.333 297.333 266.417 296.167 267.25 294.5C266.583 294.5 266 294.583 265.5 294.75C265 294.75 264.583 294.75 264.25 294.75C264.583 294.083 265.5 293.833 267 294C267.167 293.167 267.083 292.5 266.75 292C266.417 291.333 266.667 290.667 267.5 290C265.5 289.333 264.417 288.833 264.25 288.5C264.25 288.167 264 288.167 263.5 288.5C263 289.5 262.25 290.333 261.25 291C260.417 291.667 259.5 292.417 258.5 293.25C257.5 294.083 256.333 294.5 255 294.5C253.5 296.5 252.583 297.917 252.25 298.75C253.417 299.25 254.25 299.25 254.75 298.75C255.417 298.25 256.167 298 257 298C256.5 299.5 256.083 300.333 255.75 300.5C255.583 300.5 255.583 300.75 255.75 301.25C254.417 301.75 253.75 302.167 253.75 302.5C253.75 302.833 253.583 303.167 253.25 303.5C252.25 302.5 251.5 302.167 251 302.5C250.667 302.667 250.5 303.167 250.5 304C251.333 304.667 251.333 305.083 250.5 305.25C249.833 305.417 249.083 305.583 248.25 305.75C247.583 305.917 247 306.25 246.5 306.75C246.167 307.083 246.167 307.833 246.5 309C244.833 309.833 243.583 310.583 242.75 311.25C242.083 311.917 241.333 312.667 240.5 313.5C239.833 314.167 239.167 315 238.5 316C238 316.833 237.75 317.917 237.75 319.25C238.083 318.583 238.5 318.417 239 318.75C239.5 319.083 240 319.167 240.5 319C242.167 319.5 242.75 320 242.25 320.5C241.75 320.833 241.75 321.167 242.25 321.5C242.25 323.167 242.167 324.25 242 324.75C240.833 325.083 240.167 325.333 240 325.5C239.833 325.667 239.583 325.75 239.25 325.75C238.083 328.25 236.5 330.167 234.5 331.5C232.5 332.833 230.667 334.417 229 336.25C230 336.75 230.917 336.417 231.75 335.25C232.75 334.083 234 333.5 235.5 333.5C237.333 331.167 239.333 329.25 241.5 327.75C243.833 326.25 246.083 324.583 248.25 322.75C249.917 322.083 251.25 321.417 252.25 320.75C253.417 320.083 254.25 319.75 254.75 319.75C256.25 318.083 257.167 317.5 257.5 318C258 318.333 258.25 318.167 258.25 317.5C259.083 315.333 260 313.917 261 313.25C262 312.417 263.083 312.167 264.25 312.5C264.25 311.667 263.833 311.333 263 311.5C262.333 311.5 261.917 311.25 261.75 310.75C263.417 311.083 264.417 311 264.75 310.5C265.75 309.5 266.083 308.833 265.75 308.5C265.583 308.167 265.333 307.917 265 307.75C266.333 307.25 266.917 306.917 266.75 306.75C266.583 306.583 266.583 306.167 266.75 305.5C267.583 305.833 268 305.333 268 304C268 302.667 268.167 301.75 268.5 301.25ZM262 326.25C261.167 325.75 260.5 325.25 260 324.75C259.5 324.25 259 324.417 258.5 325.25C259.833 326.083 260.417 326.75 260.25 327.25C260.25 327.75 260.083 328 259.75 328C260.75 328.5 261.5 327.917 262 326.25ZM270.25 331C269.75 330.667 269.417 330.333 269.25 330C269.083 329.5 268.667 329.167 268 329C265.667 328.667 264.75 328.917 265.25 329.75C263.75 330.25 262.917 330.417 262.75 330.25C262.583 330.083 262.333 330 262 330C259.833 331.167 258.25 332.333 257.25 333.5C256.25 334.5 254.917 335.333 253.25 336C253.75 336.833 254.5 337.333 255.5 337.5C256.667 337.667 257.833 337.667 259 337.5C260.333 337.333 261.583 337.167 262.75 337C263.917 336.833 264.917 336.833 265.75 337C266.583 335.833 267.167 334.75 267.5 333.75C268 332.75 268.917 331.833 270.25 331ZM263.25 320.75C262.583 319.583 262.083 319 261.75 319C261.417 318.833 261.083 318.917 260.75 319.25C260.083 321.75 259.083 323.083 257.75 323.25C256.417 323.25 255.333 323.667 254.5 324.5C254.333 325 253.667 325.667 252.5 326.5C251.5 327.167 250.583 327.417 249.75 327.25C248.25 328.417 247.583 329.167 247.75 329.5C248.083 329.833 248.083 330 247.75 330C246.583 329.833 245.667 330.167 245 331C244.5 331.667 243.833 332 243 332C242.333 332.5 241.833 333.083 241.5 333.75C241.333 334.25 240.75 334.25 239.75 333.75C240.083 334.583 240.25 335.25 240.25 335.75C240.25 336.25 240.083 336.667 239.75 337C240.417 337.5 241.083 337.583 241.75 337.25C242.417 336.917 243 336.583 243.5 336.25C244.167 335.75 244.833 335.333 245.5 335C246.167 334.667 247 334.667 248 335C248.5 334.667 249.083 334.333 249.75 334C250.583 333.5 250.583 333 249.75 332.5C250.583 331.5 251.333 330.917 252 330.75C252.833 330.583 253.167 330.167 253 329.5C253 328.833 253.167 328.417 253.5 328.25C255.333 328.417 256.167 328.417 256 328.25C256 327.917 256.417 327.833 257.25 328C257.417 325.833 257.917 324.667 258.75 324.5C259.75 324.167 260.5 323.667 261 323C261.833 323 262.333 322.833 262.5 322.5C262.667 322.167 262.917 321.583 263.25 320.75ZM240.5 323C240.667 322.667 240.833 322.167 241 321.5C241.333 320.833 241.167 320.417 240.5 320.25C240.167 321.25 240 322 240 322.5C240 322.833 240.167 323 240.5 323ZM266.25 161.75C265.917 163.25 265.083 164.333 263.75 165C262.583 165.667 261.583 166.583 260.75 167.75C258.083 168.583 256.417 169.667 255.75 171C255.25 172.167 254.083 172.75 252.25 172.75C251.083 173.917 249.667 174.667 248 175C247.167 177.167 246.25 178.417 245.25 178.75C244.25 179.083 243.417 179.417 242.75 179.75C243.75 177.917 244.083 177 243.75 177C243.583 176.833 243.583 176.583 243.75 176.25C244.583 176.25 245.417 175.667 246.25 174.5C245.583 172.833 245.75 172.25 246.75 172.75C247.75 173.083 248.167 172.667 248 171.5C248.667 171.833 249.083 172.083 249.25 172.25C249.417 172.25 249.833 172.417 250.5 172.75C251.167 171.417 251.5 170.5 251.5 170C251.667 169.5 252.167 169.333 253 169.5C253.833 168.333 254.167 167.667 254 167.5C254 167.333 254.167 166.833 254.5 166C255.167 166.167 255.667 166.417 256 166.75C256.5 166.917 257.083 166.833 257.75 166.5C257.583 164.833 258 163.917 259 163.75C260.167 163.417 261.167 163.583 262 164.25C261.667 163.583 261.583 163.167 261.75 163C261.917 162.667 261.917 162.167 261.75 161.5C262.583 161.667 263.417 161.667 264.25 161.5C265.083 161.167 265.75 161.25 266.25 161.75ZM252.5 178.5C252.167 178.833 251.667 179 251 179C250.5 178.833 250.083 178.917 249.75 179.25C250.917 178.083 251.583 177.667 251.75 178C251.917 178.167 252.167 178.333 252.5 178.5ZM244.25 173C243.417 173.333 243 173.833 243 174.5C243 175 243 175.5 243 176C242.5 175 242.25 174.417 242.25 174.25C242.417 174.083 242.417 173.583 242.25 172.75L244.25 173ZM253.5 187C252.667 186.833 252.25 187.083 252.25 187.75C252.25 188.25 251.833 188.5 251 188.5C252.667 186.833 253.5 186.333 253.5 187ZM241.5 175.75C241 176.083 240.5 176.417 240 176.75C239.667 176.917 239.25 177 238.75 177C239.25 175.667 239.667 175.083 240 175.25C240.5 175.417 241 175.583 241.5 175.75ZM264.25 206.75C263.75 207.083 263.083 207.25 262.25 207.25C261.417 207.25 260.75 207.083 260.25 206.75C261.75 206.417 262.5 206.083 262.5 205.75C262.667 205.417 262.917 205.167 263.25 205L264.25 206.75ZM255.75 208.5C256.083 209.333 255.833 209.667 255 209.5C254.333 209.333 253.667 209.333 253 209.5C253.667 209.333 254.083 209.083 254.25 208.75C254.583 208.417 255.083 208.333 255.75 208.5ZM264.75 250.75C262.583 251.417 261.333 252.333 261 253.5C261.5 252.5 262 251.75 262.5 251.25C263.167 250.583 263.917 250.417 264.75 250.75ZM260.5 243.75C259 244.083 258.167 244.75 258 245.75C257.833 246.75 257.583 247.417 257.25 247.75C256.25 248.417 255.167 249.083 254 249.75C253 250.25 251.833 250.667 250.5 251C250.333 250.333 250.75 249.833 251.75 249.5C252.75 249 253.667 248.667 254.5 248.5C254.833 248.167 255.167 247.75 255.5 247.25C255.833 246.583 256.417 246.5 257.25 247C256.417 246.167 256.417 245.25 257.25 244.25C258.083 243.25 259.167 243.083 260.5 243.75ZM254.75 257.75C253.75 259.083 253.167 259.833 253 260C252.833 260.167 252.583 260.25 252.25 260.25C252.75 259.417 253.167 258.917 253.5 258.75C253.833 258.583 254 258.25 254 257.75H254.75ZM251 263.5C249.667 263.833 248.417 264.083 247.25 264.25C248.25 264.25 249 264 249.5 263.5C250 262.833 250.5 262.833 251 263.5ZM247 265.75C247.5 266.417 247.25 266.917 246.25 267.25C245.25 267.417 244.583 267.25 244.25 266.75C245.417 266.583 246.333 266.25 247 265.75ZM263.25 296.75C261.583 297.083 260.5 297.25 260 297.25C259.667 297.083 259.5 296.75 259.5 296.25C260.333 296.583 260.917 296.833 261.25 297C261.75 297 262.417 296.917 263.25 296.75ZM263 303C262.667 303.833 262.083 304.333 261.25 304.5C260.417 304.5 259.833 304.75 259.5 305.25C259 304.917 258.583 304.583 258.25 304.25C257.917 303.917 257.333 303.917 256.5 304.25C256.667 302.583 257.5 301.917 259 302.25C260.667 302.417 262 302.667 263 303ZM261 311.75C260.667 312.25 260.167 312.583 259.5 312.75C259 312.917 258.333 313.083 257.5 313.25C258.5 312.75 259.083 312.333 259.25 312C259.417 311.667 260 311.583 261 311.75ZM258.25 307C257.25 308.167 256.333 309 255.5 309.5C254.667 310 254 310.667 253.5 311.5C254.667 311.167 256.083 310.833 257.75 310.5C257.75 311.667 257.25 312.333 256.25 312.5C255.417 312.667 254.833 313.167 254.5 314C253.333 313 252.833 312.417 253 312.25C253.333 311.917 253.333 311.667 253 311.5C252.167 312 251.25 312.167 250.25 312C249.25 311.833 248.333 312.167 247.5 313C249 311.667 250.25 310.583 251.25 309.75C252.417 308.917 253.75 308 255.25 307C255.083 305.333 255.333 304.75 256 305.25C256.667 305.75 257.417 305.833 258.25 305.5V307ZM250.75 317.5C250.083 317.333 249.667 317.25 249.5 317.25C249.333 317.25 248.833 317.333 248 317.5C246.667 318.167 246.333 319.083 247 320.25C246.167 320.917 245.583 320.917 245.25 320.25C245.083 319.417 244.583 319.25 243.75 319.75C245.583 318.917 246.583 318 246.75 317C245.583 315.167 245.167 314.25 245.5 314.25C245.833 314.083 246.167 314 246.5 314C247 314 247.417 314 247.75 314C248.083 313.833 248.25 313.5 248.25 313C249.25 314 249.583 314.583 249.25 314.75C249.083 314.917 249.083 315.25 249.25 315.75L250.75 317.5Z" fill="#124E78"/>
</g>
<defs>
<clipPath id="clip0_1_2">
<rect width="500" height="500" fill="white"/>
</clipPath>
</defs>
</svg>
